<?xml version="1.0" standalone="no"?>
<!DOCTYPE svg PUBLIC "-//W3C//DTD SVG 1.1//EN" "http://www.w3.org/Graphics/SVG/1.1/DTD/svg11.dtd" >
<svg>
<metadata>
Created by FontForge 20090914 at Tue Oct 15 21:02:59 2013
 By www-data
Copyright (c) 2012 by Brittney Murphy. All rights reserved.
</metadata>
<defs>
<font id="alwaysforever" horiz-adv-x="277" >
  <font-face 
    font-family="always  forever"
    font-weight="400"
    font-stretch="normal"
    units-per-em="1000"
    panose-1="0 0 0 0 0 0 0 0 0 0"
    ascent="750"
    descent="-250"
    x-height="480.004"
    cap-height="648"
    bbox="-142.749 -422.129 565.61 731.002"
    underline-thickness="50"
    underline-position="-50"
    unicode-range="U+0020-U+2212"
  />
<missing-glyph horiz-adv-x="219" 
 />
    <glyph glyph-name=".notdef" horiz-adv-x="219" 
 />
    <glyph glyph-name="space" unicode=" " horiz-adv-x="188" 
 />
    <glyph glyph-name="exclam" unicode="!" horiz-adv-x="128" 
d="M43 635c1.33301 7.33301 4.66797 11.001 10.001 11.001s8.66602 -3.66699 9.99902 -11c-0.666992 -85.333 -0.833984 -169.5 -0.500977 -252.5s4.16602 -166.833 11.499 -251.5c-2 -6 -5.5 -8.83301 -10.5 -8.5s-8.16699 3.16602 -9.5 8.49902
c-7.33301 85.333 -11.166 169.5 -11.499 252.5s-0.166016 166.833 0.500977 251.5zM78.002 35.001c3.33301 -3.33301 4.00098 -6.83301 2.00098 -10.5s-5.66699 -5.5 -11 -5.5h-3c-3.33301 2.66699 -5.66602 4.66699 -6.99902 6c-0.666992 3.33301 -1 7 -1 11
c1.33301 7.33301 4.66602 11 9.99902 11s8.66602 -3.66699 9.99902 -11v-1z" />
    <glyph glyph-name="quotedbl" unicode="&#x22;" horiz-adv-x="149" 
d="M96 587c1.33301 7.33301 4.66797 11.001 10.001 11.001s8.66602 -3.66699 9.99902 -11v-150c-2 -6 -5.5 -8.83301 -10.5 -8.5s-8.16699 3.16602 -9.5 8.49902v150zM15.002 591.001c1.33301 7.33301 4.66797 10.999 10.001 10.999s8.66602 -3.66699 9.99902 -11
c0 -24 0.333008 -48.333 1 -73s5.66699 -48.667 15 -72c2.66699 -6 1.5 -10.667 -3.5 -14s-9.5 -1.66602 -13.5 5.00098c-10 24.667 -15.667 50 -17 76s-2 52 -2 78z" />
    <glyph glyph-name="numbersign" unicode="#" horiz-adv-x="369" 
d="M64 545c1.33301 5.33301 4.33789 8.83496 9.00488 10.502s8 -0.833008 10 -7.5c3.33301 -22 6.33301 -44 9 -66s5 -44 7 -66c18 3.33301 35.833 7 53.5 11s35.167 8.66699 52.5 14c-2 40 -3 80 -3 120c1.33301 7.33301 4.66602 11 9.99902 11
s8.66602 -3.66699 9.99902 -11c0 -38.667 1 -77 3 -115l83 24c7.33301 1.33301 11.5 -1 12.5 -7s-1.83301 -10 -8.5 -12l-86 -25l2 -50.5c0.666992 -16.333 1.66699 -32.833 3 -49.5c36 3.33301 72.333 5.33301 109 6c6 -1.33301 9.16699 -4.5 9.5 -9.5
s-2.5 -8.5 -8.5 -10.5c-36.667 -0.666992 -73 -2.66699 -109 -6c2.66699 -54.667 4.66699 -110 6 -166c-2 -6 -5.5 -8.83301 -10.5 -8.5s-8.16699 3.16602 -9.5 8.49902c-0.666992 54 -2.66699 108.667 -6 164l-51.5 -4l-51.5 -4c1.33301 -19.333 2.16602 -39 2.49902 -59
s0.833008 -39.667 1.5 -59c-2 -6 -5.5 -8.83301 -10.5 -8.5s-8.16699 3.16602 -9.5 8.49902c-0.666992 19.333 -1.16699 38.833 -1.5 58.5s-1.16602 39.167 -2.49902 58.5c-8.66699 -0.666992 -17.334 -1 -26.001 -1h-26c-6.66699 0 -10.334 3 -11.001 9
s2.66602 9.66699 9.99902 11h26c8.66699 0 17.334 0.333008 26.001 1c-0.666992 13.333 -1.5 26.333 -2.5 39s-2.16699 25.667 -3.5 39c-11.333 -2 -22.333 -3.33301 -33 -4l-33 -2c-6.66699 0 -10.334 3 -11.001 9s2.66602 9.66699 9.99902 11l33 2
c10.667 0.666992 21.334 2 32.001 4c-2 22 -4.33301 44 -7 66s-5.66699 44 -9 66zM107.005 316.002l51.999 4l52 4c-1.33301 16 -2.33301 32.167 -3 48.5l-2 48.5c-17.333 -5.33301 -34.666 -10 -51.999 -14s-35 -7.66699 -53 -11z" />
    <glyph glyph-name="dollar" unicode="$" 
d="M126 629c1.33301 7.33301 4.66699 11.001 10 11.001s8.66602 -3.66699 9.99902 -11v-58.5c0 -19.667 0.333008 -39.167 1 -58.5c8 3.33301 15.833 5.16602 23.5 5.49902s13.167 -3.16699 16.5 -10.5c2 -6 0.833008 -10.667 -3.5 -14s-8.5 -2.33301 -12.5 3
c-8.66699 0 -16.667 -1.66699 -24 -5l4 -194c15.333 -1.33301 30.5 -2.5 45.5 -3.5s29.5 -3.16699 43.5 -6.5c3.33301 -1.33301 5.33301 -3.66602 6 -6.99902c0.666992 -0.666992 1.83398 -4.33398 3.50098 -11.001s1.83398 -11.667 0.500977 -15
c-5.33301 -11.333 -17.166 -23.833 -35.499 -37.5s-38.5 -25.167 -60.5 -34.5c0.666992 -24.667 0.833984 -43.667 0.500977 -57s-0.666016 -25.5 -0.999023 -36.5s-0.666016 -23.167 -0.999023 -36.5s-0.5 -32.333 -0.5 -57c-2 -6 -5.5 -8.83301 -10.5 -8.5
s-8.16699 3.16602 -9.5 8.49902c0 24 0.166992 42.333 0.5 55s0.666016 24.167 0.999023 34.5s0.666016 21.833 0.999023 34.5s0.166016 31 -0.500977 55c-22 -7.33301 -42.333 -9.66602 -61 -6.99902s-31 13.667 -37 33c-2 6.66699 0 11 6 13s10 -0.333008 12 -7
c2.66699 -9.33301 7 -15.5 13 -18.5s12.833 -4.16699 20.5 -3.5s15.5 2.33398 23.5 5.00098l23 8c-0.666992 14 -1.16699 28 -1.5 42s-0.5 28 -0.5 42c-14.667 2 -29.334 4.5 -44.001 7.5s-27.667 6.66699 -39 11s-20.333 9.5 -27 15.5s-9.66699 13 -9 21
c3.33301 38 13.166 69 29.499 93s40.5 45.667 72.5 65l12 7c-0.666992 21.333 -1 42.666 -1 63.999v64zM57.001 318.001c11.333 -6 23.168 -10.334 35.501 -13.001s25.166 -4.66699 38.499 -6l-4 181c-10 -6.66699 -20 -14.334 -30 -23.001s-19.167 -17.667 -27.5 -27
s-15.333 -18.166 -21 -26.499s-9.16699 -15.5 -10.5 -21.5c-1.33301 -6.66699 -2 -13.5 -2 -20.5s-0.666992 -14.167 -2 -21.5c4 -3.33301 7.66699 -7.16602 11 -11.499s7.33301 -7.83301 12 -10.5zM228.003 269c-5.33301 1.33301 -15.001 2.66602 -29.001 3.99902
s-29.667 3 -47 5c0 -12 0.166992 -24.167 0.5 -36.5s0.833008 -24.5 1.5 -36.5c6 2.66699 11.667 5.33398 17 8.00098s10.833 6 16.5 10s11.834 9 18.501 15s14.667 13.667 24 23z" />
    <glyph glyph-name="percent" unicode="%" horiz-adv-x="427" 
d="M296 274c3.33301 4.66699 9 8.99902 17 12.999s16.5 7.16699 25.5 9.5s17.833 3 26.5 2s15.334 -4.16699 20.001 -9.5c10.667 -12 17.167 -26.667 19.5 -44s1 -34.166 -4 -50.499s-12.833 -30.833 -23.5 -43.5s-23.334 -20.334 -38.001 -23.001
c-26 -4 -44.833 -1.33301 -56.5 8s-18.334 21.833 -20.001 37.5s0.833008 32.834 7.5 51.501s15.334 35 26.001 49zM329 657.999c4.66699 4.66699 9.33203 5.83008 13.999 3.49707s6 -6.5 4 -12.5l-73.5 -176.5c-25 -58.333 -49 -117.166 -72 -176.499
s-44.333 -119.166 -64 -179.499s-36.834 -121.833 -51.501 -184.5c-1.33301 -3.33301 -3.16602 -5.66602 -5.49902 -6.99902s-4.66602 -1.83301 -6.99902 -1.5s-4.33301 1.5 -6 3.5s-2.16699 4.66699 -1.5 8c14.667 62.667 32 124.5 52 185.5s41.5 121.333 64.5 181
l72 178.5zM372.998 271.995c-10.667 7.33301 -21 9.50293 -31 6.50293s-19.167 -8.5 -27.5 -16.5s-15.166 -17.667 -20.499 -29s-9 -22 -11 -32c-1.33301 -8 -1.33301 -16 0 -24s4 -15 8 -21s9.66699 -10 17 -12s16 -1 26 3c8 3.33301 16.667 10.666 26 21.999
s16.833 23.666 22.5 36.999s8.16699 26.166 7.5 38.499s-6.33398 21.5 -17.001 27.5zM127.998 573.998c2 -5.33301 0.830078 -9.83105 -3.50293 -13.498s-8.5 -3.16699 -12.5 1.5c-14 3.33301 -26.667 -0.666992 -38 -12s-19.833 -25.666 -25.5 -42.999
s-7.66699 -35.166 -6 -53.499s8.83398 -32.5 21.501 -42.5c10 -8 20.333 -11.5 31 -10.5s20.5 4.83301 29.5 11.5s16.5 15.167 22.5 25.5s9 20.833 9 31.5s-3.66699 20.667 -11 30s-19.666 16 -36.999 20c-6 3.33301 -8.5 7.66602 -7.5 12.999s5.16699 7.33301 12.5 6
c21.333 -4.66699 36.666 -13 45.999 -25s14.5 -25 15.5 -39s-1.83301 -28 -8.5 -42s-15.667 -25.5 -27 -34.5s-24.5 -14.333 -39.5 -16s-30.5 2.5 -46.5 12.5c-14 8.66699 -22.833 21.167 -26.5 37.5s-4.16699 33.166 -1.5 50.499s7.83398 34.166 15.501 50.499
s15.834 29.166 24.501 38.499c2 2 6 4.33301 12 7s12.5 4.5 19.5 5.5s13.5 0.833008 19.5 -0.5s10 -4.33301 12 -9z" />
    <glyph glyph-name="ampersand" unicode="&#x26;" horiz-adv-x="311" 
d="M291 19c2 -5.33301 1.1709 -9.50391 -2.49609 -12.5039s-8.16699 -2.83301 -13.5 0.5c-13.333 17.333 -29.666 35.5 -48.999 54.5l-60 60.5c-16.667 -16.667 -34.667 -31.167 -54 -43.5s-40 -19.166 -62 -20.499c-6 0 -10.833 3.83301 -14.5 11.5
s-5.83398 14.167 -6.50098 19.5c-1.33301 13.333 2.5 32.333 11.5 57s20.167 51.334 33.5 80.001c-17.333 22.667 -31.5 45.5 -42.5 68.5s-16.5 46.167 -16.5 69.5c-0.666992 25.333 4 51 14 77s25 46.667 45 62c6.66699 4.66699 15 9 25 13s20 6 30 6
s19.167 -2.66699 27.5 -8s14.5 -14.666 18.5 -27.999c1.33301 -23.333 -0.166992 -46.166 -4.5 -68.499s-10.333 -44.166 -18 -65.499s-16.334 -42.666 -26.001 -63.999l-28.5 -63c10 -12.667 20.833 -25 32.5 -37l35.5 -36c9.33301 9.33301 17.666 18.666 24.999 27.999
l20 25c5.33301 5.33301 10.333 6.16602 15 2.49902s5 -8.5 1 -14.5l-22.5 -27.5c-7.66699 -9.66699 -15.834 -19.167 -24.501 -28.5l59 -59.5c19.333 -19.667 36.666 -39.167 51.999 -58.5zM46.0039 311.996c4 -11.333 9.16699 -22.501 15.5 -33.501
s13.166 -21.833 20.499 -32.5l38.5 85.5c12.333 27 21.166 49.167 26.499 66.5c2.66699 10 4.83398 22.5 6.50098 37.5s1.33398 28.5 -0.999023 40.5s-7.83301 20.333 -16.5 25s-22 2 -40 -8c-15.333 -8 -27.5 -19.167 -36.5 -33.5s-15.333 -30.166 -19 -47.499
s-5 -34.833 -4 -52.5s4.16699 -33.5 9.5 -47.5zM55.0039 77.9951c16 0.666992 32.333 6.83301 49 18.5s32.667 25.167 48 40.5c-22 22.667 -43 45.667 -63 69l-14.5 -29c-5.66699 -11.333 -10.5 -22.833 -14.5 -34.5s-6.83301 -23.167 -8.5 -34.5s-0.5 -21.333 3.5 -30z" />
    <glyph glyph-name="quotesingle" unicode="'" horiz-adv-x="107" 
d="M36 587c1.33301 7.33301 4.66797 11.001 10.001 11.001s8.66602 -3.66699 9.99902 -11v-150c-2 -6 -5.5 -8.83301 -10.5 -8.5s-8.16699 3.16602 -9.5 8.49902v150v0z" />
    <glyph glyph-name="parenleft" unicode="(" horiz-adv-x="182" 
d="M139 671c5.33301 5.33301 10.502 5.99902 15.502 1.99902s5.16699 -8.66699 0.5 -14c-18 -19.333 -35 -46.666 -51 -81.999s-29.333 -74.333 -40 -117s-17.667 -87 -21 -133s-1.5 -90 5.5 -132s20.333 -79.833 40 -113.5s47.167 -59.167 82.5 -76.5
c4 -4.66699 4.5 -9.33398 1.5 -14.001s-7.16699 -5.66699 -12.5 -3c-35.333 18 -63.333 43.667 -84 77s-35.334 71 -44.001 113s-11.834 86.5 -9.50098 133.5s8.5 92.833 18.5 137.5s23.5 86.334 40.5 125.001s36.167 71 57.5 97z" />
    <glyph glyph-name="parenright" unicode=")" horiz-adv-x="158" 
d="M11 673c-3.33301 6 -2.49902 10.8291 2.50098 14.4961s9.5 2.83398 13.5 -2.49902c36 -54.667 63.333 -114.167 82 -178.5s28.167 -129.666 28.5 -195.999s-8.33398 -132 -26.001 -197s-44.5 -125.5 -80.5 -181.5c-4 -6 -8.5 -7.5 -13.5 -4.5s-6.5 7.5 -4.5 13.5
c34.667 54 60.667 112.667 78 176s26 127.333 26 192s-8.83301 128.334 -26.5 191.001s-44.167 120.334 -79.5 173.001z" />
    <glyph glyph-name="asterisk" unicode="*" horiz-adv-x="411" 
d="M136 415c13.333 -11.333 25.5039 -23.498 36.5039 -36.498s22.5 -25.833 34.5 -38.5c7.33301 16 17 33.333 29 52s25.167 36 39.5 52s29.166 29.167 44.499 39.5s30 14.833 44 13.5c6.66699 -1.33301 12 -6.33301 16 -15s5 -18.667 3 -30
c-4 -22 -11.167 -45.833 -21.5 -71.5s-22.333 -52 -36 -79l-42.5 -80.5l-41 -75c5.33301 -2.66699 7 -6.33398 5 -11.001s-5.66699 -7 -11 -7c-0.666992 0 -1.16699 0.166992 -1.5 0.5s-0.833008 0.5 -1.5 0.5c-10 -19.333 -18 -39.333 -24 -60s-7.66699 -41.334 -5 -62.001
c-2 -6 -5.5 -8.83301 -10.5 -8.5s-8.16699 3.16602 -9.5 8.49902c-2.66699 20.667 -0.833984 42.334 5.49902 65.001s15.166 45.667 26.499 69l-55.5 42c-19 14 -37.167 29 -54.5 45s-33.5 33.833 -48.5 53.5s-27.5 42.167 -37.5 67.5c-10 26.667 -12.833 48 -8.5 64
s12.666 26.667 24.999 32s27.5 5.5 45.5 0.5s36 -15.167 54 -30.5zM224.004 325.002c3.33301 -4.66699 4.00195 -8.99902 2.00195 -12.999s-5.33301 -5.66699 -10 -5c-2 -5.33301 -4.16699 -8.33301 -6.5 -9s-4.5 0 -6.5 2s-3.33301 4.83301 -4 8.5s-0.666992 7.5 0 11.5
c-11.333 10.667 -21.833 21.834 -31.5 33.501s-20.167 23.167 -31.5 34.5c-12.667 12.667 -26.334 23.167 -41.001 31.5s-27.5 12 -38.5 11s-18.667 -7.16699 -23 -18.5s-2.83301 -30 4.5 -56c6 -20 14.667 -38 26 -54s24.833 -31.5 40.5 -46.5s33.667 -30.333 54 -46
l66.5 -51.5l32 61.5l35.5 67.5l33.5 66c10.667 21.333 19.167 40.666 25.5 57.999s10.166 31.833 11.499 43.5s-1 19.167 -7 22.5c-9.33301 0.666992 -20.333 -4.33301 -33 -15s-25.5 -24 -38.5 -40s-25 -32.833 -36 -50.5s-19.5 -32.834 -25.5 -45.501
c0 -0.666992 0.333008 -1 1 -1z" />
    <glyph glyph-name="plus" unicode="+" horiz-adv-x="284" 
d="M28 375c-6 0 -9.49902 2.5 -10.499 7.5s1.16699 8.83301 6.5 11.5l40.5 10l40.5 10v122c1.33301 7.33301 4.66602 11 9.99902 11s8.66602 -3.66699 9.99902 -11v-118c21.333 5.33301 42.833 9.5 64.5 12.5s43.5 5.16699 65.5 6.5c6 -1.33301 9.16699 -4.5 9.5 -9.5
s-2.5 -8.5 -8.5 -10.5c-22.667 -1.33301 -44.667 -3.66602 -66 -6.99902s-42.666 -7.33301 -63.999 -12c0 -19.333 0.166992 -34.666 0.5 -45.999s0.666016 -22 0.999023 -32s0.5 -20.833 0.5 -32.5v-45.5c-2 -6 -5.5 -8.83301 -10.5 -8.5s-8.16699 3.16602 -9.5 8.49902v45
c0 11.333 -0.166992 21.666 -0.5 30.999s-0.666016 19.5 -0.999023 30.5s-0.5 25.833 -0.5 44.5l-78 -18v0z" />
    <glyph glyph-name="comma" unicode="," horiz-adv-x="118" 
d="M40 39c-5.33301 4.66699 -6.33301 9.50195 -3 14.502s8 5.83301 14 2.5c9.33301 -6 15.5 -15.667 18.5 -29s4.16699 -27.833 3.5 -43.5s-2.5 -30.834 -5.5 -45.501s-5.83301 -26.334 -8.5 -35.001c-2.66699 -7.33301 -7 -10 -13 -8s-8 6.66699 -6 14
c2 6 4.33301 15.5 7 28.5s4.5 26.5 5.5 40.5s0.666992 26.833 -1 38.5s-5.5 19.167 -11.5 22.5z" />
    <glyph glyph-name="hyphen" unicode="-" horiz-adv-x="191" 
d="M26 323c-6.66699 0 -10.332 3 -10.999 9s2.66602 9.66699 9.99902 11c26 0.666992 48.333 1.83398 67 3.50098s41 2.83398 67 3.50098c6 -1.33301 9.16699 -4.5 9.5 -9.5s-2.5 -8.5 -8.5 -10.5c-25.333 -0.666992 -47.5 -1.83398 -66.5 -3.50098
s-41.5 -2.83398 -67.5 -3.50098z" />
    <glyph glyph-name="period" unicode="." horiz-adv-x="75" 
d="M48 35c3.33301 -3.33301 4.00098 -6.83301 2.00098 -10.5s-5.66699 -5.5 -11 -5.5h-3c-3.33301 2.66699 -5.66602 4.66699 -6.99902 6c-0.666992 3.33301 -1 7 -1 11c1.33301 7.33301 4.66602 11 9.99902 11s8.66602 -3.66699 9.99902 -11v-1z" />
    <glyph glyph-name="slash" unicode="/" horiz-adv-x="295" 
d="M259 658c4.66699 4.66699 9.33203 5.83008 13.999 3.49707s6 -6.5 4 -12.5l-73.5 -176.5c-25 -58.333 -49 -117.166 -72 -176.499s-44.333 -119.166 -64 -179.499s-36.834 -121.833 -51.501 -184.5c-1.33301 -3.33301 -3.16602 -5.66602 -5.49902 -6.99902
s-4.66602 -1.83301 -6.99902 -1.5s-4.33301 1.5 -6 3.5s-2.16699 4.66699 -1.5 8c14.667 62.667 32 124.5 52 185.5s41.5 121.333 64.5 181l72 178.5z" />
    <glyph glyph-name="zero" unicode="0" horiz-adv-x="344" 
d="M185 601c4 -4.66699 4.49609 -9.32812 1.49609 -13.9951s-7.16699 -5.66699 -12.5 -3c-12.667 9.33301 -24.834 11 -36.501 5s-22.334 -15.333 -32.001 -28s-18.167 -26.334 -25.5 -41.001s-12.666 -26.334 -15.999 -35.001c-5.33301 -14 -10.666 -33.5 -15.999 -58.5
s-9.66602 -52.5 -12.999 -82.5s-5.5 -61 -6.5 -93s-0.333008 -62.333 2 -91s6.66602 -54.334 12.999 -77.001s15.166 -39.334 26.499 -50.001c13.333 -12 27.833 -15 43.5 -9s31.334 17.5 47.001 34.5s31 37.5 46 61.5s28.333 48.333 40 73s21.5 47.5 29.5 68.5
s13 36.833 15 47.5c5.33301 30 3.33301 56 -6 78s-22.833 41.667 -40.5 59s-37.5 33.166 -59.5 47.499s-43 28.833 -63 43.5c-5.33301 4.66699 -6.33301 9.5 -3 14.5s8 5.83301 14 2.5c16 -12 33.167 -23.833 51.5 -35.5s36 -24.167 53 -37.5s32 -28.166 45 -44.499
s21.833 -35.166 26.5 -56.499c7.33301 -17.333 8.33301 -40.666 3 -69.999s-14.833 -60.166 -28.5 -92.499s-30.5 -64 -50.5 -95s-40.667 -57 -62 -78s-42.166 -34.833 -62.499 -41.5s-37.833 -1.66699 -52.5 15c-12.667 14.667 -22.667 34.167 -30 58.5
s-12.5 51.166 -15.5 80.499s-4.16699 60.166 -3.5 92.499s2.83398 63.833 6.50098 94.5s8.33398 59.167 14.001 85.5s12.167 48.166 19.5 65.499c4.66699 11.333 11.334 25.5 20.001 42.5s19 32.167 31 45.5s25.5 22.666 40.5 27.999s30.5 2 46.5 -10z" />
    <glyph glyph-name="one" unicode="1" horiz-adv-x="140" 
d="M55 588c1.33301 7.33301 4.66797 11 10.001 11s8.66602 -3.66699 9.99902 -11c0 -50.667 -1 -101.5 -3 -152.5s-3 -101.833 -3 -152.5s1.83301 -101.334 5.5 -152.001s11.167 -101 22.5 -151c1.33301 -7.33301 -1 -11.333 -7 -12s-10 2.33301 -12 9
c-11.333 50.667 -19 101.334 -23 152.001s-6 101.5 -6 152.5s1 102 3 153s3 102.167 3 153.5z" />
    <glyph glyph-name="two" unicode="2" 
d="M38 466c-1.33301 -3.33301 -3.16992 -5.66602 -5.50293 -6.99902s-4.66602 -1.83301 -6.99902 -1.5s-4.33301 1.5 -6 3.5s-2.16699 4.66699 -1.5 8c0.666992 1.33301 1 2.33301 1 3c0 1.33301 0.333008 2.33301 1 3c4 8.66699 9.16699 16.834 15.5 24.501
s12.166 15.167 17.499 22.5c6 8 14.833 17.667 26.5 29s24 20.833 37 28.5s25.833 11.5 38.5 11.5s23 -7.33301 31 -22c6.66699 -12 10.5 -25.167 11.5 -39.5s0.5 -29 -1.5 -44s-4.83301 -29.5 -8.5 -43.5s-7.5 -26.667 -11.5 -38c-7.33301 -24.667 -18.333 -53 -33 -85
l-44 -98.5c-14.667 -33.667 -27.167 -66.334 -37.5 -98.001s-15.166 -59.167 -14.499 -82.5c6.66699 -2 19.167 -0.166992 37.5 5.5s37.833 12.667 58.5 21s40.334 16.833 59.001 25.5s31.667 15 39 19c6.66699 3.33301 11.334 2.5 14.001 -2.5
s1.33398 -9.83301 -3.99902 -14.5c-10.667 -6 -25.5 -13.833 -44.5 -23.5s-39.167 -18.5 -60.5 -26.5s-42 -14.333 -62 -19s-36.333 -5.33398 -49 -2.00098c-4.66699 2 -7.33398 5 -8.00098 9c-0.666992 24 2.5 47 9.5 69s14.833 44 23.5 66c10 27.333 21.667 55 35 83
s25.833 56.333 37.5 85s21.667 57.667 30 87s12.5 59 12.5 89c0.666992 24.667 -2.33301 41 -9 49s-15 11 -25 9s-21 -7.83301 -33 -17.5s-23.167 -20.167 -33.5 -31.5s-19 -22.333 -26 -33s-10.5 -17.667 -10.5 -21z" />
    <glyph glyph-name="three" unicode="3" horiz-adv-x="362" 
d="M101 561c1.33301 4.66699 3.82617 8.00977 7.49316 10.0098s6.83398 1 9.50098 -3c17.333 10.667 35 18.334 53 23.001s34.167 5 48.5 1s25.5 -13.333 33.5 -28s10.667 -36 8 -64c-1.33301 -16.667 -5.5 -33 -12.5 -49s-15.5 -31.167 -25.5 -45.5s-21 -28 -33 -41
l-35 -36.5c15.333 3.33301 30.333 7 45 11s29.667 6.66699 45 8c41.333 2.66699 69.5 -7.83301 84.5 -31.5s18.167 -54.834 9.5 -93.501c-4 -18.667 -12.5 -40.834 -25.5 -66.501s-28.333 -50.5 -46 -74.5s-37.167 -44.5 -58.5 -61.5s-42.333 -25.833 -63 -26.5
c-31.333 0 -53.666 2.83301 -66.999 8.5s-23 12.167 -29 19.5c-9.33301 10.667 -16.666 22.667 -21.999 36s-10.333 26.666 -15 39.999c-1.33301 5.33301 0.333984 9.5 5.00098 12.5s8.66699 1.83301 12 -3.5c4.66699 -11.333 9.33398 -23.666 14.001 -36.999
s11.667 -25 21 -35c14.667 -15.333 30.167 -23.833 46.5 -25.5s32.666 1.16602 48.999 8.49902s32.333 18 48 32s30 29.167 43 45.5s24.333 32.666 34 48.999s16.834 30.166 21.501 41.499c4 8.66699 7.83301 19.167 11.5 31.5s6 24.666 7 36.999
s-0.166992 24.166 -3.5 35.499s-10 20.666 -20 27.999c-13.333 9.33301 -27.5 13.666 -42.5 12.999s-30 -3.33398 -45 -8.00098l-44.5 -13.5c-14.667 -4.33301 -29 -5.5 -43 -3.5c-6.66699 4 -9 9 -7 15l39 40c12.667 13.333 24.667 27.666 36 42.999l22 32.5
c6.66699 10.333 12.334 22.166 17.001 35.499c1.33301 5.33301 2.66602 10.333 3.99902 15s2 9.66699 2 15c0.666992 5.33301 1 10.833 1 16.5s-0.666992 11.167 -2 16.5c-3.33301 14 -8.33301 24.167 -15 30.5s-13.667 10.333 -21 12s-14.5 1.5 -21.5 -0.5
s-12.833 -4.33301 -17.5 -7c-4 -2 -9.16699 -5 -15.5 -9s-12.666 -7.16699 -18.999 -9.5s-12.166 -3.16602 -17.499 -2.49902s-9 5 -11 13z" />
    <glyph glyph-name="four" unicode="4" horiz-adv-x="280" 
d="M210 467l1.00098 4.99902c0 0.666992 -0.333008 0.333984 -1 -0.999023c1.33301 21.333 2.33301 42.666 3 63.999l2 64c0.666992 5.33301 3.5 8.83301 8.5 10.5s8.5 -0.5 10.5 -6.5c1.33301 -4 2 -7.5 2 -10.5s0.333008 -6.83301 1 -11.5l-3 -6
c-1.33301 -55.333 -4.66602 -110.5 -9.99902 -165.5l-16 -164.5l41 2c7.33301 -0.666992 10.833 -4 10.5 -10s-4.16602 -9.33301 -11.499 -10l-43 -3c-3.33301 -38.667 -6.16602 -77.5 -8.49902 -116.5s-2.83301 -78.167 -1.5 -117.5c-1.33301 -6 -4.5 -9 -9.5 -9
s-8.16699 2.66699 -9.5 8c-1.33301 40 -1.33301 79.167 0 117.5s3.66602 77.166 6.99902 116.499c-13.333 -0.666992 -26.5 -1.16699 -39.5 -1.5s-25.167 0.166992 -36.5 1.5c-30 2.66699 -51.833 11 -65.5 25s-22 31.167 -25 51.5s-2 42.833 3 67.5s10.667 48.667 17 72
l17.5 65c5.33301 20 7.33301 36 6 48l-4 2c-3.33301 5.33301 -3.33301 9.83301 0 13.5s7.66602 4.5 12.999 2.5c6 -4 9.66699 -9.33301 11 -16s1.66602 -13.667 0.999023 -21s-2 -14.666 -4 -21.999s-3.66699 -14 -5 -20c-3.33301 -14.667 -7.33301 -30.834 -12 -48.501
s-9 -35.5 -13 -53.5s-7 -35.833 -9 -53.5s-2 -34.167 0 -49.5c2 -13.333 8.33301 -23.166 19 -29.499s22.667 -10.5 36 -12.5s26.833 -2.66699 40.5 -2s25.167 1 34.5 1h17c3.33301 36.667 7.16602 72.834 11.499 108.501l13.5 108.5l-1 5z" />
    <glyph glyph-name="five" unicode="5" horiz-adv-x="291" 
d="M222 576c7.33301 -1.33301 10.6699 -5.00781 10.0029 -11.0078s-4.66699 -9 -12 -9c-6.66699 0 -17.834 0.333008 -33.501 1s-32.5 0.833984 -50.5 0.500977s-35.167 -1.5 -51.5 -3.5s-27.833 -5.66699 -34.5 -11c3.33301 -2 6 -10.333 8 -25s3.66699 -32 5 -52
s2.33301 -40.833 3 -62.5s1.66699 -40.5 3 -56.5c16.667 13.333 33.667 25.833 51 37.5s37.666 17.5 60.999 17.5c14 0 25.833 -3.5 35.5 -10.5s17.5 -16.167 23.5 -27.5s10.667 -24.166 14 -38.499s5.33301 -28.5 6 -42.5s0.666992 -27.5 0 -40.5s-2 -23.833 -4 -32.5
c-2 -10 -5.33301 -22.333 -10 -37s-10.334 -29.667 -17.001 -45s-13.667 -29.666 -21 -42.999s-14.666 -23.666 -21.999 -30.999c-38 -38 -72.167 -52.5 -102.5 -43.5s-52.833 38.5 -67.5 88.5c-2 6.66699 0 11 6 13s10 -0.333008 12 -7
c5.33301 -18 12.666 -33.667 21.999 -47s20.166 -22.5 32.499 -27.5s25.5 -5 39.5 0s28.333 17.167 43 36.5c10 13.333 19.333 28.5 28 45.5s16.167 34.667 22.5 53s11.333 37 15 56s5.16699 36.833 4.5 53.5c0 15.333 -2.16699 30.833 -6.5 46.5s-11 28.667 -20 39
s-20.167 16.833 -33.5 19.5s-29.333 -1 -48 -11c-12.667 -6.66699 -24.167 -15.167 -34.5 -25.5s-21.833 -19.166 -34.5 -26.499c-5.33301 -2 -10 -0.333008 -14 5c-0.666992 0.666992 -1 1.33398 -1 2.00098c-0.666992 0.666992 -1 2 -1 4c-1.33301 12 -2.33301 29 -3 51
s-1.5 44.333 -2.5 67s-2.5 43.667 -4.5 63s-5 33 -9 41c-3.33301 6.66699 -1.66602 11.834 5.00098 15.501s16.334 6.5 29.001 8.5s27 3.33301 43 4s31.667 0.833984 47 0.500977s29.166 -0.833008 41.499 -1.5s21.5 -1 27.5 -1z" />
    <glyph glyph-name="six" unicode="6" horiz-adv-x="295" 
d="M69 592c1.33301 7.33301 4.66699 10.999 10 10.999s8.66602 -3.66699 9.99902 -11c-6.66699 -62.667 -14.834 -124.5 -24.501 -185.5s-15.5 -122.833 -17.5 -185.5c0 -14 -0.5 -31.333 -1.5 -52s-0.166992 -41.334 2.5 -62.001s8.16699 -39.5 16.5 -56.5
s21.166 -28.833 38.499 -35.5c2 26.667 5.66699 57.5 11 92.5s12.5 69.167 21.5 102.5s20 63.333 33 90s27.833 45 44.5 55c4 2 8.33301 2 13 0c14.667 -8 25.5 -22.5 32.5 -43.5s10.5 -44.667 10.5 -71s-3.33301 -53.833 -10 -82.5s-16.334 -54.834 -29.001 -78.501
s-28.167 -43 -46.5 -58s-39.166 -22.167 -62.499 -21.5c0.666992 -8 1.5 -15.833 2.5 -23.5s2.83301 -15.167 5.5 -22.5c2.66699 -6 1.5 -10.667 -3.5 -14s-9.5 -1.66602 -13.5 5.00098c-0.666992 2 -1.66699 5.5 -3 10.5s-2.66602 10.333 -3.99902 16
s-2.83301 10.834 -4.5 15.501s-3.16699 7.33398 -4.5 8.00098c-18 8 -32 19.5 -42 34.5s-17 32.5 -21 52.5s-6.16699 41.833 -6.5 65.5s-0.166016 48.167 0.500977 73.5c2 62.667 7.83301 124.667 17.5 186s17.834 123 24.501 185zM173.001 260.999l-16.998 -53
c-6 -19.333 -11.667 -39.5 -17 -60.5s-9.66602 -42.167 -12.999 -63.5s-5.33301 -42 -6 -62c21.333 -0.666992 40 6.16602 56 20.499s29.167 32.5 39.5 54.5s18.166 46.167 23.499 72.5s8 51.166 8 74.499s-2.33301 43.5 -7 60.5s-11.667 27.167 -21 30.5
c-12.667 -7.33301 -22.334 -18.166 -29.001 -32.499s-12.334 -28.166 -17.001 -41.499z" />
    <glyph glyph-name="seven" unicode="7" horiz-adv-x="234" 
d="M30 553c-6.66699 0 -10.333 3.00391 -11 9.00391s2.66602 9.66699 9.99902 11c6.66699 0.666992 16.167 2.66699 28.5 6s25.5 6.66602 39.5 9.99902s28 5.83301 42 7.5s26.333 1.16699 37 -1.5s18.667 -8.33398 24 -17.001s6.33301 -21.667 3 -39
c-2 -11.333 -4.16699 -22.333 -6.5 -33l-7.5 -33c-4 -21.333 -8.33301 -42.833 -13 -64.5l-14 -64.5c-11.333 -54.667 -20.333 -109 -27 -163s-10.667 -109 -12 -165c-2 -6 -5.5 -8.83301 -10.5 -8.5s-8.16699 3.16602 -9.5 8.49902c1.33301 56.667 5.5 112.167 12.5 166.5
s16.167 109.166 27.5 164.499l27 130c5.33301 26.667 9 47.167 11 61.5s1.83301 24.666 -0.5 30.999s-7.16602 9.5 -14.499 9.5s-17 -1.66699 -29 -5s-26.833 -7.16602 -44.5 -11.499s-38.5 -7.5 -62.5 -9.5z" />
    <glyph glyph-name="eight" unicode="8" horiz-adv-x="331" 
d="M217 552c4 -5.33301 4.66797 -10.0029 2.00098 -14.0029s-6.66699 -5.33301 -12 -4c-6.66699 -32.667 -17.167 -64.5 -31.5 -95.5l-44.5 -97.5c17.333 -15.333 35.5 -30 54.5 -44s36.833 -28.167 53.5 -42.5s31 -28.833 43 -43.5s19.667 -30.5 23 -47.5
s1.5 -35.333 -5.5 -55s-21.167 -41.5 -42.5 -65.5c-8 -8.66699 -20.667 -19 -38 -31s-36.166 -22.333 -56.499 -31s-40.5 -13.667 -60.5 -15s-36 4.66699 -48 18c-16 16.667 -26 35 -30 55s-4.33301 40.667 -1 62s9.16602 43.333 17.499 66l25.5 69
c6.66699 18.667 13.667 36.334 21 53.001l22 48c-21.333 21.333 -40 43.333 -56 66s-25.667 47.667 -29 75c-2.66699 24 1.66602 43.833 12.999 59.5s25.833 27.334 43.5 35.001s36.834 11.334 57.501 11.001s39 -4.83301 55 -13.5c0.666992 9.33301 1.16699 18.5 1.5 27.5
s-0.166992 18.167 -1.5 27.5c-4 -2.66699 -7.83301 -2.5 -11.5 0.5s-4.5 7.16699 -2.5 12.5l4 10l4 10c2 2 4.66699 3.66699 8 5h5c5.33301 -0.666992 8.66602 -3.33398 9.99902 -8.00098c3.33301 -17.333 4.83301 -34.166 4.5 -50.499s-1.5 -32.166 -3.5 -47.499
c1.33301 -0.666992 3.33301 -2.33398 6 -5.00098zM242.001 55.9971c19.333 21.333 32.002 40.4971 38.002 57.4971s7.5 32.833 4.5 47.5s-9.83301 28.5 -20.5 41.5s-23.667 26 -39 39s-31.833 26.167 -49.5 39.5s-35.167 27.666 -52.5 42.999
c-0.666992 -2 -1.33398 -3.83301 -2.00098 -5.5s-1.33398 -3.16699 -2.00098 -4.5c-8.66699 -19.333 -17.334 -37.666 -26.001 -54.999s-16.667 -34.666 -24 -51.999s-13.666 -35.166 -18.999 -53.499s-9 -38.166 -11 -59.499c-2 -24 0 -44 6 -60s15.167 -27.833 27.5 -35.5
s27.333 -11.167 45 -10.5s36.5 5.66699 56.5 15c12 6 24.167 13.833 36.5 23.5s22.833 19.5 31.5 29.5zM117.003 353.994c16.667 34 31.6689 66.333 45.002 97s22.666 63 27.999 97c-6 3.33301 -12.5 5.66602 -19.5 6.99902l-20.5 4c-22 2.66699 -41 1.66699 -57 -3
s-28.333 -12.667 -37 -24s-13 -25.666 -13 -42.999s4.66699 -36.666 14 -57.999c6 -13.333 14.167 -26.333 24.5 -39s22.166 -25.334 35.499 -38.001z" />
    <glyph glyph-name="nine" unicode="9" horiz-adv-x="264" 
d="M229 626c1.33301 -7.33301 -0.996094 -11.332 -6.99609 -11.999s-10 2.33301 -12 9v2c-12 -3.33301 -24.333 -5.5 -37 -6.5s-24.334 -4.83301 -35.001 -11.5c-17.333 -10 -33.166 -24.5 -47.499 -43.5s-26 -39.833 -35 -62.5s-14.667 -46.167 -17 -70.5
s-0.166016 -46.833 6.50098 -67.5l19 -8c15.333 10 28.5 20.5 39.5 31.5s20.667 22.667 29 35s16.166 25.5 23.499 39.5s14.666 29 21.999 45c2.66699 6 5.16699 12.5 7.5 19.5s5 13.667 8 20s6.5 12.333 10.5 18s9 9.83398 15 12.501c7.33301 2 11.666 -1.33301 12.999 -10
c-0.666992 -38 -3.83398 -76 -9.50098 -114s-10.167 -76 -13.5 -114c-3.33301 -34.667 -6 -66.334 -8 -95.001s-3.66699 -56.834 -5 -84.501s-2.33301 -56 -3 -85s-1 -60.833 -1 -95.5c-2 -6 -5.5 -8.83301 -10.5 -8.5s-8.16699 3.16602 -9.5 8.49902
c0 51.333 1 99.5 3 144.5s4.66699 89.167 8 132.5s7.33301 87.333 12 132s10 92.667 16 144c-18.667 -42.667 -40 -84.334 -64 -125.001c-4.66699 -7.33301 -9.83398 -14.333 -15.501 -21l-16.5 -20c-10 -12 -20.833 -20.333 -32.5 -25s-22.667 -5.66699 -33 -3
s-19 8.83398 -26 18.501s-10.167 22.5 -9.5 38.5c0.666992 14.667 2.16699 31 4.5 49s7.33301 36.833 15 56.5s18.834 40 33.501 61s34.667 42.167 60 63.5c6 4.66699 14.5 8.83398 25.5 12.501s22 6 33 7s20.667 0.166992 29 -2.5s13.166 -7.66699 14.499 -15z" />
    <glyph glyph-name="colon" unicode=":" horiz-adv-x="75" 
d="M48 35c3.33301 -3.33301 4.00098 -6.83301 2.00098 -10.5s-5.66699 -5.5 -11 -5.5h-3c-3.33301 2.66699 -5.66602 4.66699 -6.99902 6c-0.666992 3.33301 -1 7 -1 11c1.33301 7.33301 4.66602 11 9.99902 11s8.66602 -3.66699 9.99902 -11v-1zM48.001 405
c3.33301 -3.33301 4.00098 -6.83301 2.00098 -10.5s-5.66699 -5.5 -11 -5.5h-3c-3.33301 2.66699 -5.66602 4.66699 -6.99902 6c-0.666992 3.33301 -1 7 -1 11c1.33301 7.33301 4.66602 11 9.99902 11s8.66602 -3.66699 9.99902 -11v-1z" />
    <glyph glyph-name="semicolon" unicode=";" horiz-adv-x="118" 
d="M40 39c-5.33301 4.66699 -6.33301 9.50195 -3 14.502s8 5.83301 14 2.5c9.33301 -6 15.5 -15.667 18.5 -29s4.16699 -27.833 3.5 -43.5s-2.5 -30.834 -5.5 -45.501s-5.83301 -26.334 -8.5 -35.001c-2.66699 -7.33301 -7 -10 -13 -8s-8 6.66699 -6 14
c2 6 4.33301 15.5 7 28.5s4.5 26.5 5.5 40.5s0.666992 26.833 -1 38.5s-5.5 19.167 -11.5 22.5zM48 405.002c3.33301 -3.33301 4.00098 -6.83301 2.00098 -10.5s-5.66699 -5.5 -11 -5.5h-3c-3.33301 2.66699 -5.66602 4.66699 -6.99902 6c-0.666992 3.33301 -1 7 -1 11
c1.33301 7.33301 4.66602 11 9.99902 11s8.66602 -3.66699 9.99902 -11v-1z" />
    <glyph glyph-name="less" unicode="&#x3c;" horiz-adv-x="226" 
d="M185 450c1.33301 7.33301 4.66992 10.999 10.0029 10.999s8.66602 -3.66699 9.99902 -11c0 -2 -0.333008 -4 -1 -6c-0.666992 -1.33301 -1.16699 -2.83301 -1.5 -4.5s-0.833008 -3.16699 -1.5 -4.5c-6.66699 -14 -14 -27.833 -22 -41.5l-24 -40.5
c-8 -13.333 -17.667 -28.5 -29 -45.5l-35 -52.5c-12 -18 -23.167 -35.667 -33.5 -53s-18.166 -32.333 -23.499 -45c4 -7.33301 14.667 -14 32 -20s36.166 -11.333 56.499 -16s39.666 -8.5 57.999 -11.5s30.166 -5.16699 35.499 -6.5c6 -2.66699 8.16699 -6.5 6.5 -11.5
s-5.5 -7.5 -11.5 -7.5l-90 19c-9.33301 2.66699 -19 4.83398 -29 6.50098s-20 4.16699 -30 7.5c-19.333 5.33301 -32.333 11.5 -39 18.5s-9.5 15 -8.5 24s5.16699 19 12.5 30l25 36.5c2 3.33301 6.83301 10.5 14.5 21.5l26 39l31 48c11 17 21 33.167 30 48.5
s16.5 29 22.5 41s9 20.667 9 26z" />
    <glyph glyph-name="equal" unicode="=" 
d="M26 433c-6.66699 0 -10.3311 3 -10.998 9s2.66602 9.66699 9.99902 11c12.667 0 29.167 0.333008 49.5 1s41.166 1.5 62.499 2.5s42 1.83301 62 2.5s36.667 1 50 1c6 -1.33301 9.16699 -4.5 9.5 -9.5s-2.5 -8.5 -8.5 -10.5c-12.667 0 -29 -0.333008 -49 -1
s-40.833 -1.5 -62.5 -2.5s-42.667 -1.83301 -63 -2.5s-36.833 -1 -49.5 -1zM26.0029 373c-6.66699 0 -10.3311 3 -10.998 9s2.66602 9.66699 9.99902 11c12.667 0 29.167 0.333008 49.5 1s41.166 1.5 62.499 2.5s42 1.83301 62 2.5s36.667 1 50 1
c6 -1.33301 9.16699 -4.5 9.5 -9.5s-2.5 -8.5 -8.5 -10.5c-12.667 0 -29 -0.333008 -49 -1s-40.833 -1.5 -62.5 -2.5s-42.667 -1.83301 -63 -2.5s-36.833 -1 -49.5 -1z" />
    <glyph glyph-name="greater" unicode="&#x3e;" horiz-adv-x="245" 
d="M17 420c-5.33301 4.66699 -6.33203 9.49805 -2.99902 14.498s8 5.83301 14 2.5c32 -19.333 60.667 -41 86 -65c20 -19.333 39 -41 57 -65l24 -33l23 -34c11.333 -18 15.333 -32.167 12 -42.5s-10.833 -18.833 -22.5 -25.5s-25.667 -12.167 -42 -16.5
s-32.333 -9.66602 -48 -15.999s-29.167 -14.333 -40.5 -24s-17.333 -23.167 -18 -40.5c-1.33301 -3.33301 -3.16602 -5.66602 -5.49902 -6.99902s-4.66602 -1.83301 -6.99902 -1.5s-4.33301 1.5 -6 3.5s-2.16699 4.66699 -1.5 8c3.33301 18.667 11.666 34.5 24.999 47.5
s28.833 23.833 46.5 32.5s35.667 15.834 54 21.501l48.5 15.5c0.666992 10 -2.5 21.833 -9.5 35.5s-16.333 28 -28 43s-24.834 30.167 -39.501 45.5s-29.334 29.5 -44.001 42.5s-28.667 24.667 -42 35s-24.333 18.166 -33 23.499z" />
    <glyph glyph-name="question" unicode="?" horiz-adv-x="201" 
d="M33 609c-6.66699 -2 -11 -0.332031 -13 5.00098s0 9.66602 6 12.999c14 6 27.833 13.333 41.5 22s28.167 13 43.5 13c22.667 0 39.334 -6.83301 50.001 -20.5s17.5 -30.167 20.5 -49.5s3.66699 -39.333 2 -60s-3.16699 -37.667 -4.5 -51
c-3.33301 -29.333 -8 -58.666 -14 -87.999l-18.5 -87.5l-19 -87c-6.33301 -29 -11.5 -58.167 -15.5 -87.5c-2 -6 -5.5 -8.83301 -10.5 -8.5s-8.16699 3.16602 -9.5 8.49902c4.66699 36 11.167 72.333 19.5 109l24.5 110c8 36.667 14.667 73.5 20 110.5
s7.66602 73.5 6.99902 109.5c0 3.33301 -0.166992 8.33301 -0.5 15s-1.5 13.667 -3.5 21s-5.5 14 -10.5 20s-12.333 10 -22 12s-22.167 1 -37.5 -3s-34 -12.667 -56 -26zM92 43.001c1.33301 7.33301 4.66797 11.001 10.001 11.001s8.66602 -3.66699 9.99902 -11v-18
c-2 -6 -5.5 -8.83301 -10.5 -8.5s-8.16699 3.16602 -9.5 8.49902v18z" />
    <glyph glyph-name="at" unicode="@" horiz-adv-x="328" 
d="M220 326c1.33301 -7.33301 -1.00586 -11.3301 -7.00586 -11.9971s-10 2.33301 -12 9c-2.66699 14.667 -7.5 24.667 -14.5 30s-14.667 7.16602 -23 5.49902s-16.666 -6.16699 -24.999 -13.5s-15.166 -16.333 -20.499 -27s-9.5 -25.834 -12.5 -45.501
s-4.5 -40.334 -4.5 -62.001s2 -42 6 -61s10.333 -33.167 19 -42.5c8.66699 5.33301 16.167 14.166 22.5 26.499s11.833 25.833 16.5 40.5s8.5 29.167 11.5 43.5s5.83301 26.166 8.5 35.499c2.66699 7.33301 8 9.33301 16 6c6.66699 -4 10.334 -10.167 11.001 -18.5
s0.666992 -17.166 0 -26.499s-0.166992 -18.166 1.5 -26.499s6.83398 -14.5 15.501 -18.5c20.667 10 35.5 26 44.5 48s14 46 15 72s-1.16699 52 -6.5 78s-12 48 -20 66c-4 8.66699 -8.66699 17.667 -14 27s-11.5 17.833 -18.5 25.5s-15.167 14 -24.5 19s-19.333 7.5 -30 7.5
c-18.667 0 -36 -5.66699 -52 -17s-30 -25 -42 -41s-21.833 -33 -29.5 -51s-12.167 -34 -13.5 -48c-10 -100.667 -5.16699 -179.334 14.5 -236.001s48.167 -91 85.5 -103c17.333 -5.33301 35.833 -4.5 55.5 2.5s37.167 20.5 52.5 40.5c5.33301 3.33301 9.66602 3 12.999 -1
s3.33301 -8.66699 0 -14l-30.5 -34c-11 -12 -24.167 -19.333 -39.5 -22c-24.667 -4 -46.834 -1.16699 -66.501 8.5s-36.667 23.834 -51 42.501s-26 40.834 -35 66.501s-15.667 53 -20 82s-6.33301 58.167 -6 87.5s2.83301 57.333 7.5 84
c2.66699 17.333 8.33398 36.166 17.001 56.499s19.834 39.166 33.501 56.499s29.334 31.833 47.001 43.5s37.5 17.5 59.5 17.5s41.333 -7.66699 58 -23s30.5 -33.833 41.5 -55.5s19.333 -44.5 25 -68.5s8.16699 -44.667 7.5 -62c-0.666992 -22 -2.5 -44.5 -5.5 -67.5
s-9.16699 -44.833 -18.5 -65.5c-7.33301 -16 -15.666 -27.667 -24.999 -35s-18.333 -10.333 -27 -9s-16.667 6.83301 -24 16.5s-12.666 23.167 -15.999 40.5c-3.33301 -11.333 -6.33301 -22.666 -9 -33.999s-6.16699 -22.166 -10.5 -32.499s-10 -20.166 -17 -29.499
s-15.833 -17 -26.5 -23c-3.33301 -0.666992 -7.33301 0.333008 -12 3c-12 12.667 -20.833 29.5 -26.5 50.5s-8.83398 43.167 -9.50098 66.5s0.833008 46.166 4.5 68.499s9.5 41.166 17.5 56.499c7.33301 14.667 17 26.5 29 35.5s24 13.833 36 14.5s23 -3.33301 33 -12
s16.667 -22.667 20 -42z" />
    <glyph glyph-name="A" unicode="A" horiz-adv-x="489" 
d="M22 193c-6.66699 0 -10.3301 3.00098 -10.9971 9.00098s2.66602 9.66699 9.99902 11c12.667 0 26.5 1.66699 41.5 5s29.5 7.33301 43.5 12l38 13c11.333 4 20 6.66699 26 8h1c0 1.33301 0.166992 2.66602 0.5 3.99902s0.5 2.66602 0.5 3.99902
c0.666992 32 1.5 63.5 2.5 94.5s3 61.833 6 92.5s7.66699 61.5 14 92.5s15.166 63.167 26.499 96.5c6.66699 20 14.167 34.167 22.5 42.5s16.5 12.166 24.5 11.499s15.5 -5.16699 22.5 -13.5s12.833 -18.833 17.5 -31.5c9.33301 -23.333 16.5 -47.666 21.5 -72.999
s9 -51 12 -77s5.33301 -52 7 -78s3.83398 -51 6.50098 -75c0 -2 0.166992 -4 0.5 -6s0.5 -4 0.5 -6c13.333 5.33301 26.833 10 40.5 14s27.834 7.66699 42.501 11c7.33301 1.33301 11.5 -1 12.5 -7s-1.83301 -10 -8.5 -12c-14.667 -3.33301 -29 -7.16602 -43 -11.499
s-27.667 -9.16602 -41 -14.499l4 -41c1.33301 -14 3 -28 5 -42l9.5 -63.5c3 -21 6.5 -42.167 10.5 -63.5l7.5 -38c3 -15.333 6.5 -31 10.5 -47s8.66699 -31.667 14 -47s11.333 -28 18 -38c4 -5.33301 9.16699 -9.83301 15.5 -13.5s12.166 -7.5 17.499 -11.5
c4 -4.66699 4.5 -9.33398 1.5 -14.001s-7.16699 -5.66699 -12.5 -3c-6.66699 5.33301 -13.334 10 -20.001 14s-12.667 9 -18 15c-6 6.66699 -12 18.667 -18 36s-11.5 35.5 -16.5 54.5s-9.16699 37 -12.5 54l-7 35.5c-6.66699 34 -12.334 68.167 -17.001 102.5
s-8.66699 68.833 -12 103.5c-25.333 -10 -50 -20.5 -74 -31.5s-48.667 -21.5 -74 -31.5v-239c0 -2 -0.333008 -6 -1 -12s-1.83398 -11.5 -3.50098 -16.5s-4.16699 -8.33301 -7.5 -10s-7.66602 0.5 -12.999 6.5c-2 22 -2.66699 44.667 -2 68s1.5 46.333 2.5 69l3 66
c1 21.333 1.16699 41.333 0.5 60c-21.333 -8 -45.5 -15.833 -72.5 -23.5s-52.167 -12.5 -75.5 -14.5zM220.004 557.001c-5.33301 -26.667 -9.66992 -51.998 -13.0029 -75.998s-6.16602 -47.833 -8.49902 -71.5s-4 -47.834 -5 -72.501s-1.5 -50.667 -1.5 -78l72 31.5
c24 11 48.333 21.5 73 31.5l-7 109c0 0.666992 -0.666992 6.66699 -2 18s-3.16602 25.5 -5.49902 42.5s-5.33301 35.333 -9 55s-7.66699 38 -12 55s-9 31.333 -14 43s-10.5 18.167 -16.5 19.5c-8 1.33301 -15.167 -3.5 -21.5 -14.5s-11.833 -23.167 -16.5 -36.5
c-5.33301 -16.667 -9.66602 -35.334 -12.999 -56.001z" />
    <glyph glyph-name="B" unicode="B" horiz-adv-x="448" 
d="M13 622c1.33301 7.33301 4.66699 10.9971 10 10.9971s8.66602 -3.66699 9.99902 -11l10 -165c3.33301 -53.333 6.33301 -110.333 9 -171l7 64c2.66699 18 5.66699 36.5 9 55.5s7.5 37.833 12.5 56.5s11.333 36.834 19 54.501s17.167 33.834 28.5 48.501
c6 8 12.833 15.667 20.5 23s15.667 13 24 17s16.833 5.66699 25.5 5s17.667 -4.66699 27 -12c4.66699 -4 8 -10.667 10 -20s3.16699 -19.166 3.5 -29.499s0.166016 -20.166 -0.500977 -29.499s-1 -16 -1 -20c-0.666992 -4 -1.66699 -11.333 -3 -22
s-3.33301 -23.167 -6 -37.5s-5.83398 -29.666 -9.50098 -45.999s-7.83398 -32.5 -12.501 -48.5c20.667 2.66699 42.167 3.16699 64.5 1.5s43.5 -6.33398 63.5 -14.001s38.167 -18.667 54.5 -33s29.5 -32.833 39.5 -55.5c8.66699 -20 9.5 -41.5 2.5 -64.5
s-18.833 -45 -35.5 -66s-36.667 -39.667 -60 -56s-47.333 -28.333 -72 -36s-48.667 -9.5 -72 -5.5s-43 16 -59 36c-3.33301 5.33301 -3.16602 9.83301 0.500977 13.5s8.16699 4.16699 13.5 1.5c16.667 -15.333 35 -24.833 55 -28.5s40.333 -2.66699 61 3
s40.334 14.834 59.001 27.501s35 27.334 49 44.001s24.833 34.5 32.5 53.5s10.167 37.667 7.5 56s-11 35.5 -25 51.5s-35.667 29 -65 39c-22.667 8.66699 -45.334 13.334 -68.001 14.001c-13.333 1.33301 -24 1.66602 -32 0.999023s-14.667 -2 -20 -4
c-7.33301 -21.333 -15.666 -40 -24.999 -56s-19.666 -25.333 -30.999 -28c-4.66699 0 -8.33398 2 -11.001 6c-6 10.667 -8.33301 21 -7 31s4.83301 19.167 10.5 27.5s12.667 15.5 21 21.5s16.833 10.667 25.5 14c12.667 38 22.834 78.167 30.501 120.5
s6.5 83.166 -3.5 122.499c-5.33301 4 -11.166 5.5 -17.499 4.5s-12.5 -3.33301 -18.5 -7s-11.667 -8 -17 -13s-10 -9.83301 -14 -14.5c-18.667 -23.333 -33.167 -52.833 -43.5 -88.5s-18.166 -74 -23.499 -115s-8.5 -82.667 -9.5 -125s-1.16699 -81.5 -0.5 -117.5
c1.33301 -13.333 2.16602 -26.5 2.49902 -39.5s-0.166992 -25.167 -1.5 -36.5c-8.66699 -3.33301 -14 -4.83301 -16 -4.5s-3.33301 1.83301 -4 4.5c0 11.333 -0.166992 22.833 -0.5 34.5s-0.5 23.167 -0.5 34.5c-2 53.333 -4.33301 103.166 -7 149.499l-8 133
c-2.66699 42.333 -5.66699 83.166 -9 122.499s-6.33301 78.333 -9 117zM149.001 266.997c4 5.33301 8 11.668 12 19.001s7.66699 14.666 11 21.999c-9.33301 -10 -15.5 -18 -18.5 -24s-4.5 -11.667 -4.5 -17z" />
    <glyph glyph-name="C" unicode="C" horiz-adv-x="375" 
d="M268 424c-2 -6 -5.50098 -8.83594 -10.501 -8.50293s-8.16699 3.16602 -9.5 8.49902c-1.33301 17.333 -2.33301 36.166 -3 56.499s-2.16699 40.666 -4.5 60.999s-6.33301 40.333 -12 60s-13.834 37.5 -24.501 53.5c-4 6.66699 -9.5 11.334 -16.5 14.001
s-14.5 3.66699 -22.5 3s-15.667 -2.66699 -23 -6s-13.333 -7.66602 -18 -12.999c-19.333 -20 -36 -45.5 -50 -76.5s-25 -65 -33 -102s-13 -75.5 -15 -115.5s-0.833008 -78.833 3.5 -116.5s12.333 -72.5 24 -104.5s26.834 -58.333 45.501 -79
c14.667 -16 32.667 -29.167 54 -39.5s43 -16 65 -17s42.667 3.5 62 13.5s34 27.333 44 52c4 9.33301 6.5 19.333 7.5 30s2.16699 21 3.5 31c2.66699 6.66699 6.33398 9.16699 11.001 7.5s7.66699 -5.16699 9 -10.5c-2 -11.333 -3.33301 -22.833 -4 -34.5
s-3.66699 -22.5 -9 -32.5c-14.667 -27.333 -32.667 -47.166 -54 -59.499s-43.833 -18.333 -67.5 -18s-47.167 6.33301 -70.5 18s-44.833 27.334 -64.5 47.001s-36 42.667 -49 69s-20.5 54.5 -22.5 84.5c-2.66699 35.333 -4.5 69.833 -5.5 103.5s-0.166992 66.834 2.5 99.501
s8 65 16 97s19.667 64 35 96c14 28 31.5 50.5 52.5 67.5s41.5 26 61.5 27s37.5 -7.33301 52.5 -25s23.833 -47.5 26.5 -89.5c2.66699 -25.333 5 -50.666 7 -75.999z" />
    <glyph glyph-name="D" unicode="D" horiz-adv-x="382" 
d="M14 650c1.33301 7.33301 4.67773 11.002 10.0107 11.002s8.66602 -3.66699 9.99902 -11c0.666992 -116 2.66699 -232.667 6 -350c3.33301 44.667 8.5 88.667 15.5 132s17.167 86.666 30.5 129.999c6.66699 21.333 16.167 41.5 28.5 60.5s27 33.833 44 44.5
s35.5 15.667 55.5 15s40.667 -10 62 -28c19.333 -15.333 35.166 -37 47.499 -65s21.833 -59.167 28.5 -93.5s10.667 -70.333 12 -108s0.666016 -74 -2.00098 -109s-7.33398 -67.167 -14.001 -96.5s-14.334 -53 -23.001 -71c-4.66699 -10 -11.834 -21.5 -21.501 -34.5
s-20.334 -25.5 -32.001 -37.5s-24 -22.333 -37 -31s-25.5 -14 -37.5 -16s-22.833 0.666992 -32.5 8s-16.834 21 -21.501 41c1.33301 7.33301 4.66602 11 9.99902 11s8.66602 -3.66699 9.99902 -11c5.33301 -12.667 12.333 -20.5 21 -23.5s17.667 -2.83301 27 0.5s19 9 29 17
s19.5 17 28.5 27s17 20.333 24 31s12.167 20 15.5 28c9.33301 20 17.333 46.5 24 79.5s11 68.333 13 106s1.33301 76.167 -2 115.5s-10.333 75.666 -21 108.999s-25.334 62 -44.001 86s-42.334 39.333 -71.001 46c-15.333 4 -29.333 0.833008 -42 -9.5
s-23.667 -23.5 -33 -39.5s-17.333 -32.5 -24 -49.5s-11.334 -30.5 -14.001 -40.5c-15.333 -56 -25.166 -112.5 -29.499 -169.5s-6.83301 -114.5 -7.5 -172.5c0 -30 0.5 -59.667 1.5 -89s-0.833008 -59 -5.5 -89c0 -2 0.166992 -4 0.5 -6s0.5 -4 0.5 -6l-6 3
c-6 -2.66699 -10.333 -1 -13 5h-2v3c-6.66699 108 -11.167 215.833 -13.5 323.5s-4.16602 215.5 -5.49902 323.5z" />
    <glyph glyph-name="E" unicode="E" horiz-adv-x="324" 
d="M21 346c-6.66699 0 -10.334 2.99707 -11.001 8.99707s2.66602 9.66699 9.99902 11h6c0.666992 30 1.66699 59.833 3 89.5l4 89.5c0 4.66699 0.333008 11.667 1 21s1.33398 19.5 2.00098 30.5s1.16699 22 1.5 33s0.5 20.833 0.5 29.5h-23c-6.66699 0 -10.334 3 -11.001 9
s2.66602 9.66699 9.99902 11c17.333 0.666992 36.833 1.66699 58.5 3s43.834 3.16602 66.501 5.49902s44.834 4.83301 66.501 7.5s41.5 5.33398 59.5 8.00098c6 -1.33301 9.16699 -4.5 9.5 -9.5s-2.5 -8.5 -8.5 -10.5c-13.333 -2 -29.166 -4 -47.499 -6l-56.5 -6l-56.5 -6
c-18.333 -2 -34.166 -3.33301 -47.499 -4c0 -9.33301 -0.166992 -19.666 -0.5 -30.999s-0.833008 -22.5 -1.5 -33.5s-1.33398 -21.167 -2.00098 -30.5s-1 -16.666 -1 -21.999l-4 -87.5c-1.33301 -29 -2.33301 -58.5 -3 -88.5c8 1.33301 18.667 3 32 5l42.5 6.5l45.5 7
c15.333 2.33301 29 4.83301 41 7.5c7.33301 1.33301 11.5 -1 12.5 -7s-1.83301 -10 -8.5 -12c-10 -2 -22.333 -4.33301 -37 -7s-29.834 -5.16699 -45.501 -7.5l-46 -7c-15 -2.33301 -27.5 -4.16602 -37.5 -5.49902c-0.666992 -34 0 -67.5 2 -100.5s5.66699 -65.833 11 -98.5
c2 -12.667 4.33301 -25 7 -37s6 -24 10 -36c10.667 -27.333 25.5 -45.5 44.5 -54.5s39.167 -12.167 60.5 -9.5s42.666 9.16699 63.999 19.5s39.666 21.166 54.999 32.499c6.66699 3.33301 11.334 2.5 14.001 -2.5s1.33398 -9.83301 -3.99902 -14.5
c-30.667 -23.333 -60.667 -39.166 -90 -47.499s-56.166 -8.83301 -80.499 -1.5s-45.333 23 -63 47s-30.167 57 -37.5 99c-5.33301 33.333 -9 66.833 -11 100.5s-2.66699 67.5 -2 101.5h-4v0z" />
    <glyph glyph-name="F" unicode="F" horiz-adv-x="490" 
d="M25 42c-6 0 -9.50293 2.49805 -10.5029 7.49805s1.16699 8.83301 6.5 11.5c12.667 2.66699 23 5.33398 31 8.00098s15.333 5.5 22 8.5s13.667 6.5 21 10.5l29 16c-0.666992 35.333 -0.666992 68.666 0 99.999s1.83398 62 3.50098 92s3.83398 60.667 6.50098 92
s6 64.666 10 99.999c0.666992 8 2.83398 22.167 6.50098 42.5s8.5 41.333 14.5 63s13 41.167 21 58.5s17 27.666 27 30.999c23.333 8 47.833 7 73.5 -3s49.334 -24.667 71.001 -44s39.667 -41.666 54 -66.999s21.5 -49.333 21.5 -72c0 -29.333 -3.33301 -57.666 -10 -84.999
s-20.334 -56.5 -41.001 -87.5s-50 -65 -88 -102s-88.333 -79.167 -151 -126.5l3 -78c1.33301 0.666992 3.33301 2.33398 6 5.00098c10 9.33301 22.833 19 38.5 29s30.167 16.667 43.5 20c23.333 6 43.666 10.333 60.999 13s33 3.16699 47 1.5s27.167 -5.5 39.5 -11.5
s25.5 -14.667 39.5 -26c15.333 -12.667 26.166 -33 32.499 -61s9.83301 -57.5 10.5 -88.5s-0.833008 -60.333 -4.5 -88s-7.83398 -47.167 -12.501 -58.5l-24 -57.5c-9.33301 -21.667 -21 -41.5 -35 -59.5s-30.833 -32.167 -50.5 -42.5s-42.5 -12.5 -68.5 -6.5
c-18 4 -34 14.667 -48 32s-25.667 36.5 -35 57.5s-16.666 42 -21.999 63s-9 37.167 -11 48.5c-4 30 -8.16699 59.167 -12.5 87.5s-7.83301 57.5 -10.5 87.5c0 1.33301 -0.166992 2.5 -0.5 3.5s-0.5 2.16699 -0.5 3.5l-3 -4c-8.66699 -11.333 -15.667 -23.5 -21 -36.5
s-10.333 -26.5 -15 -40.5c-4 -6 -8.5 -7.5 -13.5 -4.5s-6.5 7.5 -4.5 13.5c6.66699 19.333 14.334 37.333 23.001 54s19.334 32 32.001 46l-2 43.5c-0.666992 14.333 -1 28.833 -1 43.5c-4.66699 -3.33301 -11.334 -7.66602 -20.001 -12.999s-17.667 -10.5 -27 -15.5
s-18.666 -9 -27.999 -12s-17.333 -3.83301 -24 -2.5zM406.997 33.998c-17.333 19.333 -37.4951 31.1689 -60.4951 35.502s-46.5 3.5 -70.5 -2.5s-47.167 -16 -69.5 -30s-41.833 -29.333 -58.5 -46c0 -5.33301 0.166992 -10.333 0.5 -15s0.833008 -9.33398 1.5 -14.001
c1.33301 -19.333 3.66602 -42 6.99902 -68s7.66602 -52.833 12.999 -80.5s11.666 -54.5 18.999 -80.5s15.666 -48.667 24.999 -68c7.33301 -14.667 16.166 -26.334 26.499 -35.001s21 -14.834 32 -18.501s22 -5 33 -4s20.833 3.83301 29.5 8.5
c18 10 34.167 25.167 48.5 45.5s26.5 43.5 36.5 69.5s17.5 53.333 22.5 82s7.33301 56.834 7 84.501s-4 53.5 -11 77.5s-17.5 43.667 -31.5 59zM193.002 611.001c-21.333 -72 -35.498 -149.499 -42.498 -232.499s-9.5 -169.5 -7.5 -259.5l49.5 40
c21.667 17.333 44.667 37.666 69 60.999s48.166 49 71.499 77s42.333 57.167 57 87.5s22.667 61.333 24 93s-7.33398 62.5 -26.001 92.5c-5.33301 9.33301 -13.166 19.333 -23.499 30s-21.833 20.5 -34.5 29.5s-25.834 16.667 -39.501 23s-26.834 9.33301 -39.501 9
s-24.167 -4.33301 -34.5 -12s-18.166 -20.5 -23.499 -38.5z" />
    <glyph glyph-name="G" unicode="G" horiz-adv-x="385" 
d="M279 643c2.66699 -6 1.50293 -10.6689 -3.49707 -14.002s-9.5 -1.66602 -13.5 5.00098c-5.33301 11.333 -13 19.333 -23 24s-21 6.83398 -33 6.50098s-23.833 -2.5 -35.5 -6.5s-21.834 -9 -30.501 -15c-10 -7.33301 -19 -16.166 -27 -26.499s-15.333 -21.166 -22 -32.499
c-16 -27.333 -28.667 -57.166 -38 -89.499s-16 -65.5 -20 -99.5s-5.5 -68 -4.5 -102s4.16699 -66.333 9.5 -97c2 -9.33301 4.5 -19.666 7.5 -30.999s6.66699 -22.333 11 -33s9.83301 -20.667 16.5 -30s14.667 -17 24 -23c11.333 -7.33301 24 -8.83301 38 -4.5
s25.667 12.166 35 23.499c16 18.667 29.167 39.667 39.5 63s18.833 47.5 25.5 72.5s12.167 50.167 16.5 75.5l12.5 73c-2 14 -3.66699 28.333 -5 43s-1.83301 28.167 -1.5 40.5s1.83301 23.333 4.5 33s6.66699 16.5 12 20.5c6 2.66699 10.667 1.66699 14 -3
c4.66699 -8 7.33398 -17.5 8.00098 -28.5s0.5 -22.333 -0.5 -34s-2.5 -23.334 -4.5 -35.001s-4 -21.834 -6 -30.501c3.33301 -26.667 7.66602 -53.167 12.999 -79.5s11.333 -52.5 18 -78.5l33.5 -120.5c11.667 -40.333 21 -81 28 -122s9.83301 -82.167 8.5 -123.5
s-10 -83 -26 -125c-10.667 -28 -23 -53.667 -37 -77s-34.667 -42.666 -62 -57.999c-19.333 -10 -36.166 -14.167 -50.499 -12.5s-26.5 7.66699 -36.5 18s-18.333 23.666 -25 39.999s-11.334 33.833 -14.001 52.5c-7.33301 46 -6.33301 93.833 3 143.5s29 95.5 59 137.5
c9.33301 13.333 20.333 25.5 33 36.5s24.667 22.167 36 33.5c5.33301 5.33301 10.333 6.16602 15 2.49902s5 -8.5 1 -14.5c-11.333 -11.333 -23.166 -22.333 -35.499 -33s-23.166 -22.667 -32.499 -36c-14.667 -20.667 -27.5 -45.167 -38.5 -73.5
s-18.667 -57.666 -23 -87.999s-5.16602 -60.333 -2.49902 -90s10.667 -56.5 24 -80.5c7.33301 -13.333 18.666 -22.5 33.999 -27.5s29.333 -2.16699 42 8.5c12.667 10 25.667 23 39 39s27.666 40.667 42.999 74c14 30 23.333 60.333 28 91s6.16699 62 4.5 94s-6 65 -13 99
s-15.5 69.333 -25.5 106l-22 80c-7.33301 25.333 -14.333 52.666 -21 81.999l-9 40c-8 -42.667 -17.833 -84.167 -29.5 -124.5s-30.834 -78.166 -57.501 -113.499c-14.667 -19.333 -28.834 -31.666 -42.501 -36.999s-26.5 -6 -38.5 -2s-23.167 11.667 -33.5 23
s-19.166 24.166 -26.499 38.499s-13.333 28.833 -18 43.5s-7.66699 27.667 -9 39c-3.33301 32.667 -5.5 66.5 -6.5 101.5s0.166992 69.833 3.5 104.5s9.66602 68.5 18.999 101.5s22.666 64.5 39.999 94.5c7.33301 12.667 15.333 24.667 24 36s18.667 21 30 29
s24.333 14.333 39 19s29.167 6.66699 43.5 6s27.5 -4.33398 39.5 -11.001s21.333 -17 28 -31z" />
    <glyph glyph-name="H" unicode="H" horiz-adv-x="475" 
d="M15 244c-5.33301 -2 -9.33105 -0.667969 -11.998 3.99902s-2 9 2 13l38 24c-2 64 -3.83301 127.333 -5.5 190s-3.16699 125.667 -4.5 189c1.33301 7.33301 4.66602 11 9.99902 11s8.66602 -3.66699 9.99902 -11c0.666992 -61.333 1.83398 -122.5 3.50098 -183.5
s3.83398 -122.167 6.50098 -183.5c44 28 87.667 53.5 131 76.5s89.333 41.5 138 55.5l4 126.5l4 127.5c1.33301 7.33301 4.66602 11 9.99902 11s8.66602 -3.66699 9.99902 -11l-4 -124.5l-4 -124.5c32.667 8.66699 65.667 14.334 99 17.001
c6 -1.33301 9.16699 -4.5 9.5 -9.5s-2.5 -8.5 -8.5 -10.5c-35.333 -2.66699 -69 -8.66699 -101 -18c-1.33301 -58 -1.16602 -115.667 0.500977 -173s7.16699 -115 16.5 -173c1.33301 -7.33301 -1 -11.333 -7 -12s-10 2.33301 -12 9c-9.33301 58 -15 115.333 -17 172
s-2.33301 114 -1 172c-48 -14.667 -93.667 -33.5 -137 -56.5s-87 -48.5 -131 -76.5l2 -35c2.66699 -60.667 4.83398 -121.5 6.50098 -182.5s7.5 -121.833 17.5 -182.5c1.33301 -7.33301 -1 -11.333 -7 -12s-10 2.33301 -12 9c-10.667 60.667 -16.834 122 -18.501 184
s-3.83398 123.333 -6.50098 184c-0.666992 3.33301 -1 7 -1 11v11l-29 -18v0z" />
    <glyph glyph-name="I" unicode="I" horiz-adv-x="137" 
d="M39 637c1.33301 7.33301 4.66699 11 10 11s8.66602 -3.66699 9.99902 -11c3.33301 -58.667 5 -117.167 5 -175.5s0.666992 -117.166 2 -176.499c1.33301 -52.667 3.16602 -105.167 5.49902 -157.5s9.83301 -104.5 22.5 -156.5c1.33301 -7.33301 -1 -11.333 -7 -12
s-10 2.33301 -12 9c-13.333 52 -21.166 104.667 -23.499 158s-4.16602 106.666 -5.49902 159.999c-1.33301 58.667 -2 117.167 -2 175.5s-1.66699 116.833 -5 175.5z" />
    <glyph glyph-name="J" unicode="J" horiz-adv-x="170" 
d="M55 642c1.33301 7.33301 4.66992 11.001 10.0029 11.001s8.66602 -3.66699 9.99902 -11c0.666992 -18 1.33398 -32.833 2.00098 -44.5l2 -33.5c0.666992 -10.667 1.66699 -21.667 3 -33s3.33301 -25.333 6 -42c9.33301 -55.333 19.666 -111.333 30.999 -168
s16.666 -113.667 15.999 -171c0 -20 -0.5 -36.333 -1.5 -49s-2.5 -24.5 -4.5 -35.5s-4.5 -22.833 -7.5 -35.5s-6.5 -28.667 -10.5 -48c-9.33301 -43.333 -27.666 -84.5 -54.999 -123.5s-60.333 -69.833 -99 -92.5c-5.33301 -3.33301 -12.666 -7.66602 -21.999 -12.999
s-18.5 -9.33301 -27.5 -12s-17 -2.83398 -24 -0.500977s-11.167 9.5 -12.5 21.5c1.33301 7.33301 4.66602 11 9.99902 11s8.66602 -3.66699 9.99902 -11v-1c3.33301 0.666992 7.16602 1.5 11.499 2.5s8.5 2.16699 12.5 3.5c7.33301 4 13.5 7.16699 18.5 9.5
s9.66699 4.66602 14 6.99902s8.83301 5 13.5 8s10.334 7.16699 17.001 12.5c28 22 51.667 49.333 71 82s33.333 66 42 100c14 56 20.667 111.167 20 165.5s-4.66699 108.5 -12 162.5s-15.833 108.167 -25.5 162.5s-15.834 109.5 -18.501 165.5z" />
    <glyph glyph-name="K" unicode="K" horiz-adv-x="279" 
d="M219 619c2.66699 6.66699 6.33594 9.16797 11.0029 7.50098s7.66699 -5.16699 9 -10.5c-11.333 -35.333 -26.666 -70.833 -45.999 -106.5l-58.5 -107.5c-19.667 -36 -37 -71.833 -52 -107.5s-23.5 -70.5 -25.5 -104.5c-1.33301 -24.667 5.16699 -47.334 19.5 -68.001
s34.166 -34 59.499 -40c22 -5.33301 44.333 -7.16602 67 -5.49902s45.334 2.16699 68.001 1.5c7.33301 -1.33301 10.666 -5 9.99902 -11s-4.66699 -9 -12 -9l-140 4c-15.333 2 -28.333 7.16699 -39 15.5s-19.5 18.333 -26.5 30s-12.5 24.167 -16.5 37.5s-7 26.666 -9 39.999
v-90.5c0 -30.333 0.333008 -60.5 1 -90.5c-2 -6 -5.5 -8.83301 -10.5 -8.5s-8.16699 3.16602 -9.5 8.49902c-0.666992 112.667 -1.66699 224.5 -3 335.5s-2.33301 222.5 -3 334.5c1.33301 7.33301 4.66602 11 9.99902 11s8.66602 -3.66699 9.99902 -11
c0 -77.333 0.5 -154.333 1.5 -231s1.83301 -153.667 2.5 -231c2 12.667 6.33301 27.834 13 45.501s13.667 35.167 21 52.5s14.333 33 21 47s11.667 24 15 30l26 48.5l26 47.5c12 22 23.167 44.333 33.5 67s19.166 45.667 26.499 69z" />
    <glyph glyph-name="L" unicode="L" horiz-adv-x="267" 
d="M28 696c1.33301 7.33301 4.66895 11.001 10.002 11.001s8.66602 -3.66699 9.99902 -11c-2 -38 -4.16699 -76.333 -6.5 -115s-4.33301 -77.167 -6 -115.5s-2.5 -76.833 -2.5 -115.5s1.66699 -77.334 5 -116.001c0.666992 -12 2.16699 -26.833 4.5 -44.5
s5.66602 -35.667 9.99902 -54s9.83301 -35.833 16.5 -52.5s15 -30.334 25 -41.001c3.33301 -4 8 -8.5 14 -13.5s14.5 -7.83301 25.5 -8.5s25.167 2.16602 42.5 8.49902s39.666 19.5 66.999 39.5c6 4 10.5 3.33301 13.5 -2s1.83301 -10.333 -3.5 -15
c-16.667 -8.66699 -32.667 -18.667 -48 -30s-32.666 -18.666 -51.999 -21.999c-18.667 -2.66699 -34.834 -0.166992 -48.501 7.5s-25.167 18.5 -34.5 32.5s-17.166 30 -23.499 48s-11.5 36.167 -15.5 54.5s-7 35.5 -9 51.5s-3.33301 29 -4 39
c-3.33301 38.667 -5 77.5 -5 116.5s0.833008 77.833 2.5 116.5s3.66699 77.334 6 116.001s4.5 77 6.5 115z" />
    <glyph glyph-name="M" unicode="M" horiz-adv-x="517" 
d="M12 598c1.33301 7.33301 4.67285 11.001 10.0059 11.001s8.66602 -3.66699 9.99902 -11l6 -210c2 -69.333 5.33301 -139 10 -209c6 52.667 14.167 104.667 24.5 156s22.166 104 35.499 158l10.5 44c3.66699 15.333 7.66699 30.666 12 45.999s9.66602 30 15.999 44
s13.833 26.667 22.5 38c3.33301 3.33301 6.83301 5 10.5 5s6.16699 -2.66699 7.5 -8c9.33301 -34 14.166 -68.667 14.499 -104s1.16602 -71 2.49902 -107c1.33301 -48.667 4 -96.834 8 -144.501s9.66699 -95.5 17 -143.5c0.666992 -3.33301 1.33398 -6.5 2.00098 -9.5
s2 -5.83301 4 -8.5c12 18.667 22.833 43.5 32.5 74.5s18.5 63.667 26.5 98s15.167 68 21.5 101s12.5 61.167 18.5 84.5c2.66699 12 6 24.5 10 37.5s8.66699 25.833 14 38.5s11.666 24.5 18.999 35.5s16 20.167 26 27.5c6 2.66699 10.667 2 14 -2
c11.333 -30.667 18.833 -61.667 22.5 -93s7.16699 -63.333 10.5 -96c7.33301 -70.667 14 -141.167 20 -211.5s15.333 -140.833 28 -211.5c1.33301 -7.33301 -1 -11.333 -7 -12s-10 2.33301 -12 9c-13.333 70.667 -23 141.667 -29 213s-12.667 142.666 -20 213.999
c-3.33301 26.667 -6.16602 54.5 -8.49902 83.5s-8.16602 56.167 -17.499 81.5c-16 -22 -29.5 -48.5 -40.5 -79.5s-20.5 -63.167 -28.5 -96.5s-15.167 -66.5 -21.5 -99.5s-12.833 -62.5 -19.5 -88.5l-8 -30.5c-2.66699 -10.333 -5.66699 -20.5 -9 -30.5
c-2.66699 -7.33301 -5 -14.333 -7 -21s-4.66699 -13.667 -8 -21c-3.33301 -8.66699 -9 -16.167 -17 -22.5s-16.667 -4.83301 -26 4.5c-6 6.66699 -10.667 16.834 -14 30.501s-5.83301 27.834 -7.5 42.501s-2.66699 28.834 -3 42.501s-0.833008 23.834 -1.5 30.501
c-1.33301 19.333 -2.5 38.666 -3.5 57.999s-2.16699 38.666 -3.5 57.999c-0.666992 18 -0.833984 37.667 -0.500977 59s0.333008 43 0 65s-1.33301 43.333 -3 64s-4.83398 39.334 -9.50098 56.001c-4.66699 -6 -9.33398 -16 -14.001 -30s-9 -28.667 -13 -44l-11 -44l-7 -30
c-18 -74 -33.333 -146.667 -46 -218s-20.667 -145 -24 -221c0 -0.666992 -0.333008 -1 -1 -1c0 -1.33301 0.166992 -2.33301 0.5 -3s0.5 -1.33398 0.5 -2.00098h-3c-6 -6 -11.333 -5.33301 -16 2h-1v4c-8 91.333 -13.667 182.5 -17 273.5s-6.33301 182.167 -9 273.5z" />
    <glyph glyph-name="N" unicode="N" horiz-adv-x="357" 
d="M9 547c1.33301 7.33301 4.6709 11 10.0039 11s8.66602 -3.66699 9.99902 -11c1.33301 -70 6.5 -139.333 15.5 -208s15.167 -138 18.5 -208l19.5 96c6.33301 32 13.166 63.667 20.499 95s15.5 62.666 24.5 93.999s19.833 62 32.5 92c22.667 54 42 90.333 58 109
s29.167 25.167 39.5 19.5s18.333 -20.5 24 -44.5s10 -51.333 13 -82s5 -61.667 6 -93s2.16699 -57.333 3.5 -78c2 -38.667 4.16699 -75 6.5 -109s6 -67.5 11 -100.5s11.667 -66.167 20 -99.5s19.5 -68 33.5 -104c2.66699 -6 1.5 -10.667 -3.5 -14
s-9.5 -1.66602 -13.5 5.00098c-14 36 -25.5 71 -34.5 105s-16 68 -21 102s-8.83301 68.5 -11.5 103.5s-5 72.167 -7 111.5c-1.33301 18.667 -2.16602 42 -2.49902 70s-1.33301 55.667 -3 83s-4.33398 51.666 -8.00098 72.999s-9.33398 34.833 -17.001 40.5
s-17.5 0.833984 -29.5 -14.499s-27.333 -46 -46 -92c-14 -36 -26 -72.333 -36 -109s-19 -73.5 -27 -110.5l-23 -111c-7.33301 -37 -16 -74.167 -26 -111.5c-2 -6 -5.33301 -9 -10 -9s-8 2.33301 -10 7h-1c0 1.33301 0.333008 2.33301 1 3c-4.66699 26.667 -6.66699 54 -6 82
s0 55.667 -2 83c-4.66699 54.667 -10.334 108.667 -17.001 162s-10.667 107.333 -12 162z" />
    <glyph glyph-name="O" unicode="O" horiz-adv-x="274" 
d="M146 631c3.33301 -1.33301 5.33008 -3.33008 5.99707 -5.99707s0.5 -5.16699 -0.5 -7.5s-2.66699 -4 -5 -5s-5.16602 -0.833008 -8.49902 0.5c-4.66699 2.66699 -10.667 1.16699 -18 -4.5s-14.666 -12.5 -21.999 -20.5s-13.833 -16 -19.5 -24s-9.16699 -13.333 -10.5 -16
c-8 -16.667 -15.167 -38.334 -21.5 -65.001s-11.333 -55.667 -15 -87s-5.66699 -63.833 -6 -97.5s1.33398 -66 5.00098 -97s9.83398 -59.5 18.501 -85.5s20 -46.667 34 -62c18 -19.333 34.667 -27.5 50 -24.5s29.166 11.5 41.499 25.5s22.5 30.5 30.5 49.5
s13.667 35.167 17 48.5c4.66699 19.333 8.33398 41.833 11.001 67.5s4 52.334 4 80.001s-1.66699 55.5 -5 83.5s-9.16602 54.5 -17.499 79.5s-19.333 47.5 -33 67.5s-30.5 35.667 -50.5 47c-3.33301 5.33301 -3.16602 9.83301 0.500977 13.5s8.16699 4.16699 13.5 1.5
c22 -10 40.167 -26.167 54.5 -48.5s25.666 -47.833 33.999 -76.5s14.166 -59 17.499 -91s4.83301 -62.833 4.5 -92.5s-1.83301 -56.5 -4.5 -80.5s-5.66699 -42.333 -9 -55c-4.66699 -18 -12.5 -38 -23.5 -60s-24.333 -40.5 -40 -55.5s-32.834 -23.333 -51.501 -25
s-38.334 8.83301 -59.001 31.5c-13.333 18 -24.5 40.667 -33.5 68s-15.833 57.166 -20.5 89.499s-7.16699 65.666 -7.5 99.999s1.16699 67.666 4.5 99.999s8.5 62.5 15.5 90.5s15.5 51.667 25.5 71c2.66699 5.33301 7.33398 13 14.001 23s14.5 19.333 23.5 28
s18.333 15.5 28 20.5s19.167 5.16699 28.5 0.5z" />
    <glyph glyph-name="P" unicode="P" horiz-adv-x="363" 
d="M19 609c1.33301 7.33301 4.6709 11.002 10.0039 11.002s8.66602 -3.66699 9.99902 -11c0.666992 -74 2.66699 -147.5 6 -220.5s7.66602 -146.5 12.999 -220.5l3 -37v304c0 26 -0.5 52 -1.5 78s-0.166992 51.667 2.5 77l2 25c0.666992 8 2 15.667 4 23
c8 28.667 17.167 50 27.5 64s21.166 22.333 32.499 25s23.166 0.5 35.499 -6.5s24.5 -17 36.5 -30s23.5 -28.167 34.5 -45.5s21.167 -34.666 30.5 -51.999c6 -12 13 -26.833 21 -44.5s15.667 -36.667 23 -57s13.833 -41.5 19.5 -63.5s9.16699 -43.333 10.5 -64
s0.166016 -39.834 -3.50098 -57.501s-10.834 -32.5 -21.501 -44.5c-24 -25.333 -51.667 -38.333 -83 -39s-64 4.33301 -98 15c-5.33301 2.66699 -7.83301 6.33398 -7.5 11.001s3.5 7.66699 9.5 9c14 -1.33301 28.333 -3.83301 43 -7.5s29.167 -6.16699 43.5 -7.5s28 0 41 4
s25.167 13.667 36.5 29c6.66699 8.66699 11.334 19 14.001 31s4.16699 24.167 4.5 36.5s-0.166992 24.5 -1.5 36.5s-3 22.667 -5 32c-4 22.667 -10.5 47.5 -19.5 74.5s-20 53.833 -33 80.5s-27.667 51.5 -44 74.5s-33.833 41.833 -52.5 56.5c-12 9.33301 -22.5 13 -31.5 11
s-16.5 -7.83301 -22.5 -17.5s-10.833 -21.667 -14.5 -36s-6.5 -28.833 -8.5 -43.5s-3.5 -28.334 -4.5 -41.001s-1.5 -22 -1.5 -28c-2 -78.667 -2.16699 -159.167 -0.5 -241.5s2.5 -161.5 2.5 -237.5v-38c0 -12.667 -1.66699 -25.334 -5 -38.001
c-2 -6 -5.5 -8.83301 -10.5 -8.5s-8.16699 3.16602 -9.5 8.49902c-7.33301 29.333 -11.5 59.333 -12.5 90s-2.83301 60.667 -5.5 90c-5.33301 74 -9.66602 147.5 -12.999 220.5s-5.33301 146.5 -6 220.5z" />
    <glyph glyph-name="Q" unicode="Q" horiz-adv-x="335" 
d="M270 567c19.333 -32.667 31.665 -72.502 36.998 -119.502s5.66602 -95 0.999023 -144s-13.5 -95.667 -26.5 -140s-27.833 -80.166 -44.5 -107.499l47.5 -191c15.667 -63.333 34.5 -126.333 56.5 -189c2.66699 -6 1.5 -10.667 -3.5 -14s-9.5 -1.66602 -13.5 5.00098
c-21.333 60.667 -39.833 121.834 -55.5 183.501l-46.5 185.5c-10 -12 -21.5 -21 -34.5 -27s-27.833 -7.33301 -44.5 -4c-23.333 5.33301 -42.333 16.166 -57 32.499s-26.667 35.5 -36 57.5s-16.5 45 -21.5 69l-13.5 67c-2.66699 18.667 -4.16699 43.167 -4.5 73.5
s0.666992 61.833 3 94.5s6.5 64.334 12.5 95.001s14.333 55.667 25 75c12.667 24 27.334 44.667 44.001 62s34.334 27.666 53.001 30.999s38.334 -2.16699 59.001 -16.5s41.667 -40.5 63 -78.5zM158.999 257.998c-1.33301 5.33301 0.334961 9.5 5.00195 12.5
s8.66699 1.83301 12 -3.5c10.667 -31.333 20.5 -62.333 29.5 -93s17.5 -62 25.5 -94c12 20 22.333 43.333 31 70s15.334 55 20.001 85s7.5 60.5 8.5 91.5s0.333008 60.833 -2 89.5s-6.5 55.167 -12.5 79.5s-13.667 44.833 -23 61.5c-14 26.667 -28.833 47.334 -44.5 62.001
s-31.5 22.5 -47.5 23.5s-32 -5.33301 -48 -19s-31 -35.167 -45 -64.5c-14.667 -30.667 -25.667 -68.834 -33 -114.501s-10.333 -92.667 -9 -141s7.66602 -94.5 18.999 -138.5s28.666 -80 51.999 -108c10.667 -12 25.167 -21 43.5 -27s35.166 -4 50.499 6
c10 6.66699 18.333 14.667 25 24l-26.5 99c-9 32.667 -19.167 65.667 -30.5 99z" />
    <glyph glyph-name="R" unicode="R" horiz-adv-x="448" 
d="M8 605c1.33301 7.33301 4.66797 11.002 10.001 11.002s8.66602 -3.66699 9.99902 -11c2 -36.667 4.33301 -73.334 7 -110.001l8 -111c4 40 11 80 21 120c3.33301 12.667 7.83301 27.834 13.5 45.501s13 34.5 22 50.5s19.833 29.5 32.5 40.5s28 16.167 46 15.5
c10.667 -0.666992 19.334 -4.66699 26.001 -12s12 -16 16 -26s7 -20.5 9 -31.5s3.66699 -19.833 5 -26.5c4 -18 4.5 -38.667 1.5 -62s-7.5 -47.5 -13.5 -72.5s-13 -49.333 -21 -73l-22 -62.5c-9.33301 -23.333 -20.5 -45.333 -33.5 -66l-38.5 -63h1l169 -62.5
c56 -20.333 112.667 -43.833 170 -70.5c6 -2.66699 8.16699 -6.5 6.5 -11.5s-5.5 -7.5 -11.5 -7.5l-76 33.5l-76 31.5l-27.5 10.5l-33 13l-31.5 12c-10 3.66699 -18 6.5 -24 8.5c-34 13.333 -57.5 22.166 -70.5 26.499s-19.167 9.33301 -18.5 15s6.33398 14.5 17.001 26.5
s23 32.667 37 62c8.66699 16 16 33.333 22 52c8.66699 21.333 16.167 42.5 22.5 63.5s12.166 42.833 17.499 65.5l8.5 42.5c3 15 5 30.167 6 45.5s0.833008 30.333 -0.5 45s-4.66602 28.667 -9.99902 42c-8 18 -16.333 28.5 -25 31.5s-17.334 1.16699 -26.001 -5.5
s-17 -16.5 -25 -29.5s-15.167 -26.333 -21.5 -40s-11.666 -26.334 -15.999 -38.001s-6.83301 -19.167 -7.5 -22.5c-14.667 -50.667 -24.334 -96.667 -29.001 -138s-7 -80.833 -7 -118.5s1.33301 -75 4 -112s4 -76.167 4 -117.5v-2h-1
c-2.66699 -4.66699 -5.83398 -7 -9.50098 -7s-6.5 2 -8.5 6h-1v3c0 50 -1 98.333 -3 145s-4.66699 94 -8 142l-8 152.5c-2.66699 50.333 -5.66699 100.833 -9 151.5z" />
    <glyph glyph-name="S" unicode="S" horiz-adv-x="478" 
d="M303 666c4 -4.66699 4.49609 -9.33301 1.49609 -14s-7.16699 -5.66699 -12.5 -3l-22 16.5c-7.33301 5.66699 -15.333 10.167 -24 13.5c-18.667 6.66699 -37.334 8 -56.001 4s-36.167 -11.833 -52.5 -23.5s-30.666 -26.167 -42.999 -43.5s-21.833 -35.666 -28.5 -54.999
s-9.83398 -38.833 -9.50098 -58.5s5.5 -37.5 15.5 -53.5c16 -26 37.833 -47 65.5 -63s57.334 -29.833 89.001 -41.5l95 -34.5c31.667 -11.333 59.834 -25.333 84.501 -42c6.66699 -4.66699 14 -10.667 22 -18s15 -15.833 21 -25.5s10.167 -19.834 12.5 -30.501
s1.5 -21.667 -2.5 -33c-11.333 -30.667 -25.666 -56.5 -42.999 -77.5s-37.166 -38.333 -59.499 -52s-47 -24.334 -74 -32.001s-56.5 -13.5 -88.5 -17.5c-12.667 -2 -25.5 -2.5 -38.5 -1.5s-26.167 2.83301 -39.5 5.5c-14 2.66699 -28.833 8.16699 -44.5 16.5
s-28.834 18.666 -39.501 30.999s-17.667 26.333 -21 42s0.666992 32.5 12 50.5l50 79c4.66699 4.66699 9.33398 5.83398 14.001 3.50098s6 -6.5 4 -12.5c-8.66699 -13.333 -17.667 -26.166 -27 -38.499s-17 -25.833 -23 -40.5c-9.33301 -24 -9.83301 -43.833 -1.5 -59.5
s21.166 -27.834 38.499 -36.501s36.833 -14.334 58.5 -17.001s40.5 -3.33398 56.5 -2.00098c24 2 49.167 6.83301 75.5 14.5s51 18.334 74 32.001s43.333 30.334 61 50.001s29.834 42.5 36.501 68.5c4 16.667 2.5 31.334 -4.5 44.001s-16.667 23.667 -29 33
s-25.833 17.5 -40.5 24.5l-38.001 17.5c-9.33301 4 -21.666 8.83301 -36.999 14.5l-50.5 18.5c-18.333 6.66699 -37.333 14 -57 22s-38.167 16.667 -55.5 26s-32.5 19.166 -45.5 29.499s-22.167 21.166 -27.5 32.499c-9.33301 19.333 -15.166 38.833 -17.499 58.5
s-0.166016 41.167 6.50098 64.5c5.33301 22 14.666 43.5 27.999 64.5s29.333 38.667 48 53s39.5 24.5 62.5 30.5s46.5 5.33301 70.5 -2c9.33301 -3.33301 18 -8.16602 26 -14.499s16 -12.166 24 -17.499z" />
    <glyph glyph-name="T" unicode="T" horiz-adv-x="521" 
d="M242 691c1.33301 7.33301 4.66895 11 10.002 11s8.66602 -3.66699 9.99902 -11c0 -12.667 0.166992 -25.167 0.5 -37.5s0.5 -24.833 0.5 -37.5c40 9.33301 79.833 16.833 119.5 22.5s80.167 9.83398 121.5 12.501c6 -1.33301 9.16699 -4.5 9.5 -9.5s-2.5 -8.5 -8.5 -10.5
c-41.333 -2.66699 -81.833 -7 -121.5 -13s-79.5 -13.667 -119.5 -23c2.66699 -93.333 7.66699 -185.5 15 -276.5s18 -182.833 32 -275.5c1.33301 -7.33301 -1 -11.333 -7 -12s-10 2.33301 -12 9c-14 92.667 -24.833 184.5 -32.5 275.5s-12.834 182.833 -15.501 275.5
c-28 -6.66699 -55.833 -13.834 -83.5 -21.501s-55.5 -15.834 -83.5 -24.501l-28 -10c-9.33301 -3.33301 -18.333 -7.66602 -27 -12.999c-5.33301 -2 -9.33301 -0.666992 -12 4s-2 9 2 13c17.333 10.667 35.5 19 54.5 25s38.167 11.667 57.5 17l59.5 16
c19.667 5.33301 39.5 10.333 59.5 15c0 13.333 -0.166992 26.5 -0.5 39.5s-0.5 26.167 -0.5 39.5z" />
    <glyph glyph-name="U" unicode="U" horiz-adv-x="347" 
d="M50 627c1.33301 7.33301 4.66895 11 10.002 11s8.66602 -3.66699 9.99902 -11c-1.33301 -40.667 -5.16602 -80.667 -11.499 -120s-11.5 -79.333 -15.5 -120c-4 -40 -6.66699 -80.667 -8 -122s-1.33301 -82 0 -122c0.666992 -8 1.5 -19 2.5 -33s3 -28.167 6 -42.5
s7.33301 -27.5 13 -39.5s13.167 -20 22.5 -24c12.667 -4.66699 24.5 -4 35.5 2s21.333 15 31 27s18.5 26 26.5 42s15.167 32.167 21.5 48.5s11.833 31.5 16.5 45.5l11 33c4.66699 13.333 9.66699 28.5 15 45.5s10.666 35.5 15.999 55.5
c-0.666992 22.667 -0.833984 45.334 -0.500977 68.001s1.16602 45.667 2.49902 69c0.666992 18 0.833984 39.333 0.500977 64s0.333984 50 2.00098 76s4.83398 51 9.50098 75s12.667 44.667 24 62c3.33301 3.33301 7.33301 4.66602 12 3.99902
c10.667 -5.33301 17.667 -17 21 -35s4.66602 -37.833 3.99902 -59.5s-2.33398 -42.5 -5.00098 -62.5l-6 -45c-10 -73.333 -24.667 -147.333 -44 -222c0.666992 -62 4.33398 -123.333 11.001 -184s17.667 -122 33 -184c1.33301 -7.33301 -1 -11.333 -7 -12s-10 2.33301 -12 9
c-13.333 52 -23.333 103.5 -30 154.5s-11 102.5 -13 154.5c-11.333 -36 -24.333 -71.167 -39 -105.5s-30.667 -67.833 -48 -100.5c-6 -11.333 -14.5 -21.333 -25.5 -30s-22.667 -14.5 -35 -17.5s-24.333 -2.16699 -36 2.5s-20.834 14.667 -27.501 30
c-12 29.333 -19.833 58.5 -23.5 87.5s-5.5 59.167 -5.5 90.5c0 26 0.5 52 1.5 78s2.16699 51.667 3.5 77c3.33301 47.333 8.83301 94 16.5 140s12.5 92.667 14.5 140zM272.003 380c6.66699 27.333 12.668 55.167 18.001 83.5s9.5 56.166 12.5 83.499s4.5 53.5 4.5 78.5
s-2.33301 47.5 -7 67.5c-8.66699 -17.333 -14.667 -37.166 -18 -59.499s-5.5 -45 -6.5 -68s-1.33301 -45.5 -1 -67.5s0.166016 -41.333 -0.500977 -58z" />
    <glyph glyph-name="V" unicode="V" horiz-adv-x="305" 
d="M18 618c-6 3.33301 -8.49902 7.66895 -7.49902 13.002s5.16699 7.33301 12.5 6c5.33301 -2.66699 10.5 -8.83398 15.5 -18.501s9.83301 -21.167 14.5 -34.5s8.83398 -27.5 12.501 -42.5s6.83398 -29 9.50098 -42l7 -34.5c2 -10 3.33301 -16.333 4 -19
c16.667 -66.667 34.167 -133 52.5 -199s39.166 -134.333 62.499 -205l2 -3c2 9.33301 3.5 22.833 4.5 40.5s2.16699 36.667 3.5 57s2.5 40.666 3.5 60.999s2.5 38.166 4.5 53.499l26 199.5c8.66699 65.667 16 131.834 22 198.501c1.33301 7.33301 4.66602 11 9.99902 11
s8.66602 -3.66699 9.99902 -11c-6 -66.667 -13.333 -133 -22 -199l-26 -199c-0.666992 -6.66699 -1.66699 -16 -3 -28s-2.66602 -24.667 -3.99902 -38s-2.5 -26.166 -3.5 -38.499s-1.5 -21.833 -1.5 -28.5c0 -4.66699 -0.5 -12.834 -1.5 -24.501s-2.33301 -23.5 -4 -35.5
s-3.83398 -22.833 -6.50098 -32.5s-6.33398 -14.5 -11.001 -14.5c-7.33301 1.33301 -14.666 9.83301 -21.999 25.5s-14 33 -20 52s-11 36.833 -15 53.5s-6.66699 26.667 -8 30c-16.667 56.667 -32.167 113 -46.5 169l-42.5 169c-1.33301 4.66699 -3.33301 12.834 -6 24.501
s-5.66699 23.5 -9 35.5s-6.5 22.667 -9.5 32s-5.5 14.666 -7.5 15.999z" />
    <glyph glyph-name="W" unicode="W" horiz-adv-x="445" 
d="M58 720c1.33301 7.33301 4.66895 11.002 10.002 11.002s8.66602 -3.66699 9.99902 -11c-2 -90.667 -7.16699 -180.334 -15.5 -269.001s-15.5 -178.334 -21.5 -269.001c0 -4 -0.5 -11.667 -1.5 -23s-2 -24.5 -3 -39.5s-1.83301 -30.667 -2.5 -47
s-0.833984 -31.5 -0.500977 -45.5s1 -25.833 2 -35.5s2.83301 -15.167 5.5 -16.5c0.666992 0 1.33398 0.333008 2.00098 1s1 1.16699 1 1.5s0.333008 0.833008 1 1.5c7.33301 9.33301 12.833 19.666 16.5 30.999l10.5 33c6.66699 21.333 12.667 42.666 18 63.999
s10.333 42.666 15 63.999c3.33301 15.333 6.16602 30.5 8.49902 45.5s5.16602 30.167 8.49902 45.5c7.33301 42.667 13.166 85.167 17.499 127.5s6.5 84.833 6.5 127.5c1.33301 3.33301 4 6 8 8s8 -0.666992 12 -8c0 -61.333 0.5 -123.833 1.5 -187.5
s8.16699 -125.834 21.5 -186.501c2 -9.33301 4.5 -19.833 7.5 -31.5s6.66699 -23.334 11 -35.001s10 -22.167 17 -31.5s15.5 -16.333 25.5 -21c15.333 -6.66699 29.333 -8 42 -4s24.334 11.5 35.001 22.5s20.167 24.333 28.5 40s15.333 31.667 21 48s10.167 31.5 13.5 45.5
s5.33301 25.333 6 34c4 38.667 6.33301 77.334 7 116.001s-1.5 76.667 -6.5 114s-13.333 74 -25 110s-27.5 71 -47.5 105c-3.33301 6 -2.5 10.833 2.5 14.5s9.5 2.83398 13.5 -2.49902c18.667 -29.333 34.167 -63.166 46.5 -101.499s21.666 -78.166 27.999 -119.499
s9.5 -82.666 9.5 -123.999s-3 -80 -9 -116c-4.66699 -28 -11.5 -57 -20.5 -87s-24.167 -56.667 -45.5 -80l-15 -15c-6 -6 -13.333 -11.167 -22 -15.5s-18.5 -7.16602 -29.5 -8.49902s-23.833 0 -38.5 4c-11.333 1.33301 -21.333 7.66602 -30 18.999
s-16.167 25.166 -22.5 41.499s-11.833 34.333 -16.5 54s-8.5 38.667 -11.5 57s-5.16699 34.666 -6.5 48.999l-3 31.5c-1.33301 8 -2.16602 16 -2.49902 24s-0.833008 16.333 -1.5 25c-5.33301 -38 -11.833 -75.5 -19.5 -112.5s-16.5 -73.5 -26.5 -109.5l-7 -28.5
c-2.66699 -11 -5.66699 -22 -9 -33s-7.16602 -21.5 -11.499 -31.5s-9.83301 -18.333 -16.5 -25c-7.33301 -7.33301 -13.833 -10.666 -19.5 -9.99902s-10.5 3.33398 -14.5 8.00098s-7 10.834 -9 18.501s-3 14.834 -3 21.501c0 15.333 0.166992 30.333 0.5 45
s0.833008 29.667 1.5 45c1.33301 29.333 3 59.166 5 89.499s4.33301 60.166 7 89.499l19 224c6 74 9.66699 148.667 11 224z" />
    <glyph glyph-name="X" unicode="X" horiz-adv-x="328" 
d="M18 596c-3.33301 5.33301 -3.16406 9.83105 0.50293 13.498s8.16699 4.16699 13.5 1.5c20.667 -17.333 40.167 -35 58.5 -53s34.166 -38.667 47.499 -62c11.333 41.333 25.166 80.833 41.499 118.5s37.166 73.5 62.499 107.5
c4.66699 4.66699 9.33398 5.83398 14.001 3.50098s6 -6.5 4 -12.5c-28 -35.333 -50 -72.666 -66 -111.999s-29.667 -81.333 -41 -126l13.5 -21c4.33301 -6.66699 8.5 -13.667 12.5 -21c29.333 -52.667 52.833 -104.667 70.5 -156s31.167 -103.166 40.5 -155.499
s15.666 -105.666 18.999 -159.999s5.66602 -110.833 6.99902 -169.5c-2 -6 -5.5 -8.83301 -10.5 -8.5s-8.16699 3.16602 -9.5 8.49902c-1.33301 59.333 -3.66602 117.166 -6.99902 173.499s-10 111.833 -20 166.5s-24.667 108.334 -44 161.001s-45.333 105 -78 157
c-8.66699 -39.333 -15.667 -79.333 -21 -120s-9.33301 -81.334 -12 -122.001s-4.66699 -80.834 -6 -120.501s-2.33301 -77.5 -3 -113.5c-2 -6 -5.5 -8.83301 -10.5 -8.5s-8.16699 3.16602 -9.5 8.49902c0.666992 38.667 1.66699 78.667 3 120s3.5 83.333 6.5 126
s7.5 85.334 13.5 128.001s14 84.334 24 125.001c-15.333 24 -33 45.667 -53 65z" />
    <glyph glyph-name="Y" unicode="Y" horiz-adv-x="476" 
d="M59 632c4.66699 4.66699 9.33594 5.83496 14.0029 3.50195s6 -6.5 4 -12.5c-17.333 -35.333 -29.166 -75.833 -35.499 -121.5s-8.83301 -92.834 -7.5 -141.501s6 -96.334 14 -143.001s18 -88.334 30 -125.001c10 -23.333 20.5 -37.5 31.5 -42.5s22.167 -3.66699 33.5 4
s22.666 20.5 33.999 38.5s22.166 38.5 32.499 61.5s20 47.167 29 72.5l24.5 71.5c7.33301 22.333 13.333 42 18 59s7.66699 28.833 9 35.5c6 24.667 11.333 49.334 16 74.001l14 74c1.33301 9.33301 2.5 18.333 3.5 27s2.16699 17.667 3.5 27
c0.666992 2.66699 2 6.16699 4 10.5s2.33301 5.83301 1 4.5c6.66699 6.66699 12.334 6.66699 17.001 0c5.33301 -10.667 11 -26.167 17 -46.5s12 -43.166 18 -68.499s11.667 -52 17 -80s10.166 -55 14.499 -81s8 -49.5 11 -70.5s4.83301 -37.5 5.5 -49.5l4 -59
c27.333 20.667 46.166 33 56.499 37s14.333 3.16699 12 -2.5s-9.5 -14.167 -21.5 -25.5s-27 -22 -45 -32c3.33301 -36 5 -70.333 5 -103s-2.66699 -70 -8 -112c-4 -30 -7.83301 -55.333 -11.5 -76s-8.83398 -39.834 -15.501 -57.501s-15.334 -35.167 -26.001 -52.5
s-25.334 -37.666 -44.001 -60.999c-14.667 -18.667 -30.667 -33.834 -48 -45.501s-34.333 -19.834 -51 -24.501s-32.5 -5.5 -47.5 -2.5s-27.167 10.5 -36.5 22.5s-15.333 28.333 -18 49s-0.333984 46.667 6.99902 78c18 76 49.5 145.667 94.5 209s97.833 120 158.5 170
l21 17l-6 72c-6.66699 59.333 -16.167 117.833 -28.5 175.5s-26.166 115.167 -41.499 172.5c-2 -26 -6.5 -57.833 -13.5 -95.5s-15.5 -76.167 -25.5 -115.5s-21 -77.166 -33 -113.499s-24.333 -66.5 -37 -90.5c-12.667 -23.333 -26.167 -46 -40.5 -68
s-29.166 -38.333 -44.499 -49s-30.5 -13 -45.5 -7s-29.167 25.667 -42.5 59c-14.667 36 -26.167 78.5 -34.5 127.5s-12.833 99.167 -13.5 150.5s2.83301 101 10.5 149s19.834 89 36.501 123zM415.002 -80.999c4 32 6.33301 64.6709 7 98.0039s0 67 -2 101l-11 -9
c-26.667 -22 -53.167 -46.833 -79.5 -74.5s-50.666 -57.334 -72.999 -89.001s-41.666 -64.667 -57.999 -99s-27.833 -68.833 -34.5 -103.5c-2.66699 -11.333 -4.33398 -23.166 -5.00098 -35.499s0 -24.5 2 -36.5c5.33301 -30.667 14.5 -49.834 27.5 -57.501
s27.5 -8.83398 43.5 -3.50098s32.167 15.333 48.5 30s30.833 29 43.5 43c13.333 15.333 25 32.166 35 50.499s18.667 37.166 26 56.499c8 21.333 14.167 42.833 18.5 64.5s8.16602 43.167 11.499 64.5z" />
    <glyph glyph-name="Z" unicode="Z" horiz-adv-x="542" 
d="M23 678c-6.66699 0 -10.3291 3 -10.9961 9s2.66602 9.66699 9.99902 11c28.667 2.66699 57.167 4 85.5 4s56.833 -0.666992 85.5 -2c14 -0.666992 31.333 -1.33398 52 -2.00098s41.667 -2.66699 63 -6s42 -8.33301 62 -15s36.5 -15.667 49.5 -27
s20.833 -25.833 23.5 -43.5s-2 -39.167 -14 -64.5c-8.66699 -17.333 -18 -34.166 -28 -50.499s-19.667 -33.166 -29 -50.499l-71.5 -125.5c-23.667 -41.667 -46.167 -84.5 -67.5 -128.5c-2.66699 -6 -7 -15.167 -13 -27.5l-19.5 -41.5
c-7 -15.333 -13.667 -31.166 -20 -47.499s-11.333 -32 -15 -47s-5.5 -28.5 -5.5 -40.5s3 -20.667 9 -26c12 0 27.667 3.5 47 10.5s40.333 15.833 63 26.5s46 22.667 70 36s47.167 26.833 69.5 40.5s42.666 26.667 60.999 39s33.166 22.833 44.499 31.5
c6.66699 3.33301 11.334 2.5 14.001 -2.5s1.33398 -9.83301 -3.99902 -14.5c-26.667 -21.333 -54.167 -40.166 -82.5 -56.499l-87.5 -48.5c-20 -10.667 -39.833 -21.834 -59.5 -33.501s-40.167 -22.167 -61.5 -31.5c-32.667 -14.667 -56.834 -20.334 -72.501 -17.001
s-25.334 12.166 -29.001 26.499s-2.83398 32.666 2.49902 54.999s12.5 44.833 21.5 67.5s18.333 44 28 64s16.834 35.333 21.501 46l26 52l27.5 51.5l27.5 50.5l58 100c4 6.66699 11 17.334 21 32.001s19.5 30.667 28.5 48s15.667 34.666 20 51.999s2.5 32.333 -5.5 45
c-5.33301 8.66699 -13 15.834 -23 21.501s-20.667 10.167 -32 13.5s-22.833 5.83301 -34.5 7.5l-30.5 4.5c-44.667 6 -90.334 9 -137.001 9s-92.667 -1.66699 -138 -5z" />
    <glyph glyph-name="bracketleft" unicode="[" horiz-adv-x="186" 
d="M126 636c7.33301 -1.33301 10.667 -5.00293 10 -11.0029s-4.66699 -9 -12 -9c-11.333 0.666992 -21.666 1.83398 -30.999 3.50098s-17.5 2 -24.5 1s-12.667 -4.33301 -17 -10s-6.83301 -15.167 -7.5 -28.5c-0.666992 -10.667 -1.33398 -22.667 -2.00098 -36
s-1.16699 -26.833 -1.5 -40.5s-0.5 -27 -0.5 -40v-35.5l-2 -184.5c-0.666992 -62.333 2.66602 -123.833 9.99902 -184.5c11.333 0 22.166 0.333008 32.499 1s20.5 0.5 30.5 -0.5s19.5 -3.5 28.5 -7.5s17.833 -10.333 26.5 -19c4.66699 -5.33301 5 -10.166 1 -14.499
s-9 -4.5 -15 -0.5c-8.66699 8.66699 -19.5 14.334 -32.5 17.001s-25.833 4 -38.5 4s-23.834 0.166992 -33.501 0.5s-15.5 3.16602 -17.5 8.49902c-2 4.66699 -3.5 12.167 -4.5 22.5s-1.83301 20.833 -2.5 31.5s-1 20.334 -1 29.001v16
c-1.33301 47.333 -2.16602 94.333 -2.49902 141s-0.166016 93.667 0.500977 141c0 14.667 0.166992 29.167 0.5 43.5s0.5 28.5 0.5 42.5c0.666992 30 1.33398 53.333 2.00098 70s4 29 10 37s16 12.5 30 13.5s35 0.5 63 -1.5z" />
    <glyph glyph-name="backslash" unicode="\" horiz-adv-x="283" 
d="M16 658l74.5 -177.997l72 -178.5c23 -59.667 44.5 -120 64.5 -181s37.333 -122.833 52 -185.5c0.666992 -7.33301 -2 -11.333 -8 -12s-10 2.33301 -12 9c-14.667 62.667 -31.834 124.167 -51.501 184.5s-41 120.166 -64 179.499s-47 118.166 -72 176.499l-73.5 176.5
c-2 6 -0.666992 10.167 4 12.5s9.33398 1.16602 14.001 -3.50098z" />
    <glyph glyph-name="bracketright" unicode="]" horiz-adv-x="175" 
d="M45 613c-6 0 -9.49316 2.49805 -10.4932 7.49805s1.16699 8.83301 6.5 11.5c13.333 2.66699 26.166 6.33398 38.499 11.001s23.166 7.33398 32.499 8.00098s16.666 -2.33301 21.999 -9s8 -20 8 -40c0 -11.333 -0.166992 -22.833 -0.5 -34.5s-0.833008 -23.5 -1.5 -35.5
c-0.666992 -22 -1.33398 -40.833 -2.00098 -56.5s-1.5 -30.667 -2.5 -45s-2 -29.666 -3 -45.999l-3.5 -58.5c-0.666992 -12.667 -1.66699 -28 -3 -46l-4 -56.5l-4 -57c-1.33301 -18.333 -2.66602 -34.166 -3.99902 -47.499c-2 -22.667 -5 -46.334 -9 -71.001
c-3.33301 -19.333 -7.33301 -31.833 -12 -37.5s-10.334 -8 -17.001 -7s-14.334 4 -23.001 9s-19 8.5 -31 10.5c-6 3.33301 -8.5 7.66602 -7.5 12.999s5.16699 7.33301 12.5 6c9.33301 -2 17.166 -5.16699 23.499 -9.5s11.833 -7.33301 16.5 -9
s8.33398 -0.833984 11.001 2.49902s5 12 7 26c4 21.333 7 43.666 9 66.999l4 49l4 48c5.33301 68.667 10.166 137.334 14.499 206.001s5.83301 137.334 4.5 206.001c-4.66699 3.33301 -10.334 4.5 -17.001 3.5s-13.5 -2.66699 -20.5 -5s-14 -5 -21 -8
s-12.833 -4.83301 -17.5 -5.5z" />
    <glyph glyph-name="asciicircum" unicode="^" horiz-adv-x="224" 
d="M32 523c-4 -6 -8.49707 -7.50195 -13.4971 -4.50195s-6.5 7.5 -4.5 13.5c2 2.66699 6.66699 11.167 14 25.5s15.666 29.833 24.999 46.5l26.5 45.5c8.33301 13.667 14.5 21.167 18.5 22.5c5.33301 1.33301 9 0 11 -4c10 -12 18.5 -24.833 25.5 -38.5l21 -41
c7 -13.667 14.333 -27.167 22 -40.5s17.167 -25.666 28.5 -36.999c1.33301 -4 1.16602 -7.5 -0.500977 -10.5s-4.83398 -4.5 -9.50098 -4.5c-4 0 -6.66699 2 -8 6c-10 10 -19.167 21.833 -27.5 35.5s-16 27.5 -23 41.5l-20 39.5c-6.33301 12.333 -11.833 21.833 -16.5 28.5
c-10.667 -21.333 -21.667 -42.166 -33 -62.499s-23.333 -40.833 -36 -61.5z" />
    <glyph glyph-name="underscore" unicode="_" horiz-adv-x="325" 
d="M26 3c-6.66699 0 -10.332 3 -10.999 9s2.66602 9.66699 9.99902 11c8.66699 0 20.167 0.166992 34.5 0.5s30.333 0.833008 48 1.5s35.834 1.16699 54.501 1.5s36.834 0.833008 54.501 1.5s33.667 1.16699 48 1.5s25.833 0.5 34.5 0.5c6 -1.33301 9.16699 -4.5 9.5 -9.5
s-2.5 -8.5 -8.5 -10.5c-12.667 0 -31.667 -0.333008 -57 -1s-51.833 -1.5 -79.5 -2.5s-54.334 -1.83301 -80.001 -2.5s-44.834 -1 -57.501 -1z" />
    <glyph glyph-name="grave" unicode="`" horiz-adv-x="139" 
d="M19 641c-3.33301 5.33301 -3.16699 9.83301 0.5 13.5s8.16699 4.16699 13.5 1.5c17.333 -16 32.833 -33.333 46.5 -52l40.5 -57c2 -5.33301 1.16699 -9.5 -2.5 -12.5s-8.16699 -2.83301 -13.5 0.5l-39.5 56c-13 18 -28.167 34.667 -45.5 50z" />
    <glyph glyph-name="a" unicode="a" horiz-adv-x="323" 
d="M58 419c23.333 41.333 47.3311 63.3311 71.998 65.998s50.667 -12.333 78 -45c0 1.33301 0.166992 2.83301 0.5 4.5s0.5 3.5 0.5 5.5v2c1.33301 5.33301 4 8 8 8s7.33301 -2 10 -6l2 1v-6c1.33301 -15.333 1.83301 -30.833 1.5 -46.5s-1.16602 -31.167 -2.49902 -46.5
c0.666992 -21.333 1.5 -42.5 2.5 -63.5s2.16699 -41 3.5 -60s3 -36.5 5 -52.5s4 -29.333 6 -40c1.33301 -7.33301 3.5 -18.666 6.5 -33.999s7.33301 -29.833 13 -43.5s12.5 -24 20.5 -31s18 -5.16699 30 5.5c5.33301 3.33301 9.66602 3 12.999 -1s3.33301 -8.66699 0 -14
c-15.333 -13.333 -28.666 -18.166 -39.999 -14.499s-21.166 12.334 -29.499 26.001s-15.333 30.834 -21 51.501s-10.167 41.167 -13.5 61.5s-5.83301 38.833 -7.5 55.5s-2.83398 28 -3.50098 34c0 2 -0.166992 4.33301 -0.5 7s-0.5 5.33398 -0.5 8.00098l-10 -46
c-3.33301 -16 -8.33301 -31.667 -15 -47l-21 -46c-10 -20.667 -22.167 -39.334 -36.5 -56.001s-28.5 -27.5 -42.5 -32.5s-27 -2.5 -39 7.5s-21.333 31.667 -28 65c-5.33301 24.667 -8.66602 51.167 -9.99902 79.5s-0.5 56.666 2.5 84.999s8.16699 56.166 15.5 83.499
s17.333 52.333 30 75zM200.998 301.998l3.99707 28.998c1.33301 10 2.33301 20 3 30v56c-4 0 -7 1 -9 3l-19.5 26.5c-6.33301 8.33301 -15.166 14.166 -26.499 17.499s-21.833 2.33301 -31.5 -3s-18.5 -12.833 -26.5 -22.5s-15 -20 -21 -31s-10.333 -20.5 -13 -28.5
c-15.333 -38.667 -24.5 -78.834 -27.5 -120.501s-2.83301 -82.834 0.5 -123.501c2.66699 -27.333 7.33398 -48.666 14.001 -63.999s15.167 -23.666 25.5 -24.999s22 4.33398 35 17.001s27.167 33.334 42.5 62.001c7.33301 14 13.5 28.333 18.5 43s9.5 29.334 13.5 44.001
c4.66699 15.333 8.33398 30.333 11.001 45s5 29.667 7 45z" />
    <glyph glyph-name="b" unicode="b" horiz-adv-x="352" 
d="M15 676c-3.33301 6 -2.49512 10.832 2.50488 14.499s9.5 2.83398 13.5 -2.49902c6 -8 10.833 -17.833 14.5 -29.5s6.66699 -23.667 9 -36s4.33301 -24.666 6 -36.999s3.16699 -22.833 4.5 -31.5c9.33301 -58.667 17 -117.334 23 -176.001s10.667 -118 14 -178
c1.33301 -16 2.33301 -33.833 3 -53.5s1.66699 -37.167 3 -52.5c2.66699 10 5.16699 20.833 7.5 32.5s4.33301 22.667 6 33s3.16699 19.166 4.5 26.499s2 11.333 2 12l7.5 38.5c3.66699 19 8.5 40.167 14.5 63.5s13 47 21 71s17.333 44.167 28 60.5s22.334 27.333 35.001 33
s26.667 1.83398 42 -11.499c16.667 -13.333 29 -31.166 37 -53.499s13.333 -46 16 -71s3 -49.667 1 -74s-4.66699 -44.5 -8 -60.5c-1.33301 -8 -5 -21.833 -11 -41.5s-13.667 -39.834 -23 -60.501s-20 -39.334 -32 -56.001s-25 -26.334 -39 -29.001
c-10 -1.33301 -17.333 -0.166016 -22 3.50098s-8 8.5 -10 14.5s-3.16699 13.167 -3.5 21.5s-1.5 17.166 -3.5 26.499c1.33301 5.33301 4.33301 8.83301 9 10.5s8 -0.833008 10 -7.5l9 -46l13 -2c19.333 20.667 36.333 44.834 51 72.501s25.834 56.5 33.501 86.5
s11.5 60.5 11.5 91.5s-4.66699 60.5 -14 88.5c-4.66699 15.333 -11.5 30.5 -20.5 45.5s-21.167 25.5 -36.5 31.5c-17.333 -16 -31.833 -36.5 -43.5 -61.5s-21.5 -51.667 -29.5 -80s-14.667 -56.666 -20 -84.999l-15 -76.5c-2.66699 -12.667 -5 -28.167 -7 -46.5
s-7.33301 -32.833 -16 -43.5c-6 -4.66699 -11.333 -3.66699 -16 3c-4.66699 10 -7.83398 21.333 -9.50098 34s-2.83398 25.667 -3.50098 39s-1 26.333 -1 39s-0.333008 24 -1 34c-1.33301 18.667 -2.83301 42 -4.5 70s-3.83398 57.833 -6.50098 89.5
s-5.83398 64.167 -9.50098 97.5s-7.83398 64.5 -12.501 93.5s-9.83398 54.667 -15.501 77s-11.834 38.5 -18.501 48.5z" />
    <glyph glyph-name="c" unicode="c" horiz-adv-x="260" 
d="M174 413c-2 -6 -5.50488 -8.83691 -10.5049 -8.50391s-8.16699 3.16602 -9.5 8.49902c0 31.333 -4.16699 53.333 -12.5 66s-18 18 -29 16s-22.167 -10.833 -33.5 -26.5s-20.333 -36.5 -27 -62.5c-6 -24 -11 -51.667 -15 -83s-6 -63.333 -6 -96s2.33301 -64.5 7 -95.5
s12.667 -57.833 24 -80.5c8 -14.667 17.167 -22.667 27.5 -24s21 1.66699 32 9s22 17.5 33 30.5s21.333 26.833 31 41.5s18.167 28.667 25.5 42l17 31c4.66699 4.66699 9.33398 5.83398 14.001 3.50098s6 -6.5 4 -12.5l-20.5 -38c-6.33301 -12 -14.166 -24 -23.499 -36
l-17.5 -24.5l-9.5 -12.5c-2.66699 -3.33301 -6.16699 -7 -10.5 -11s-11.166 -11 -20.499 -21c-5.33301 -5.33301 -11.333 -10.166 -18 -14.499s-13.667 -6.5 -21 -6.5c-22.667 0 -40.667 8.16699 -54 24.5s-23.166 37.166 -29.499 62.499s-10 53.333 -11 84
s-0.5 60.834 1.5 90.501s5 57 9 82s7.66699 44.167 11 57.5c8 32.667 20 58.334 36 77.001s31.833 28.834 47.5 30.501s29.334 -5.66602 41.001 -21.999s17.5 -43.5 17.5 -81.5z" />
    <glyph glyph-name="d" unicode="d" horiz-adv-x="290" 
d="M124 472c14.667 -4.66699 27.333 -13 38 -25l31 -36c-0.666992 5.33301 -1 11 -1 17v18c-0.666992 30.667 -0.166992 61 1.5 91s5.83398 59.667 12.501 89c0.666992 2.66699 2.66699 9.33398 6 20.001s7.5 20.334 12.5 29.001s10.5 14.167 16.5 16.5
s12.333 -2.83398 19 -15.501c5.33301 -10.667 8.66602 -25.834 9.99902 -45.501s1.5 -40.334 0.5 -62.001s-2.83301 -43 -5.5 -64s-5 -37.833 -7 -50.5c-4 -30 -8.83301 -59.333 -14.5 -88s-12.834 -57 -21.501 -85l5 -47v1l28.5 -142.5c9.66699 -47 21.5 -94.5 35.5 -142.5
c1.33301 -6 -0.5 -9.83301 -5.5 -11.5s-9.16699 0.166016 -12.5 5.49902c-15.333 48 -28.5 95.833 -39.5 143.5s-19.833 96.5 -26.5 146.5c-6 -18 -12.667 -36 -20 -54s-15.333 -35.667 -24 -53c-5.33301 -11.333 -12.5 -23.166 -21.5 -35.499s-18.833 -22.333 -29.5 -30
s-21.5 -12 -32.5 -13s-21.5 4.16699 -31.5 15.5c-11.333 12.667 -19.5 32.5 -24.5 59.5s-8 56 -9 87s-0.833008 61 0.5 90s3 52.167 5 69.5c1.33301 12 4.33301 25 9 39s11.334 26.5 20.001 37.5s19.167 19.333 31.5 25s26.833 5.83398 43.5 0.500977zM202.999 273
c-4 34.667 -7.00391 69.6709 -9.00391 105.004c-10.667 24.667 -24.167 43 -40.5 55s-32.666 17.667 -48.999 17s-30.666 -7.83398 -42.999 -21.501s-19.833 -33.834 -22.5 -60.501c-4 -43.333 -5.83301 -84.333 -5.5 -123s2.83301 -71.834 7.5 -99.501
s11.5 -48.167 20.5 -61.5s20.333 -16.333 34 -9s29.334 26.666 47.001 57.999s37.834 78 60.501 140zM213.995 383.004c0.666992 -8.66699 1.16992 -17.1699 1.50293 -25.5029s1.16602 -16.5 2.49902 -24.5c4 18 7.5 37 10.5 57l9.5 64l8 54.5
c2.66699 18.333 4.66699 36.833 6 55.5s1.33301 36.834 0 54.501s-5 34.834 -11 51.501c-8 -16 -14.167 -34.667 -18.5 -56s-7.33301 -44.5 -9 -69.5s-2.33398 -51.167 -2.00098 -78.5s1.16602 -54.666 2.49902 -81.999v-1zM228.998 217.001l-2 12
c1.33301 -6.66699 2 -10.667 2 -12z" />
    <glyph glyph-name="e" unicode="e" horiz-adv-x="253" 
d="M10 242c-5.33301 2.66699 -7.83398 6.50391 -7.50098 11.5039s3.16602 7.5 8.49902 7.5v19.5c0 5.66699 0.333008 11.167 1 16.5c0.666992 8 1.33398 19.667 2.00098 35s2.16699 31.5 4.5 48.5s6.16602 33.333 11.499 49s13 27.167 23 34.5
c13.333 10 25.666 13.667 36.999 11s21.666 -8.5 30.999 -17.5s17.333 -19.5 24 -31.5l17 -31c7.33301 -14 11.333 -30.333 12 -49s-1.66602 -36.834 -6.99902 -54.501s-13.5 -33.834 -24.5 -48.501s-24.167 -25.334 -39.5 -32.001
c-7.33301 -3.33301 -14 -4.66602 -20 -3.99902s-11.833 2.33398 -17.5 5.00098s-11.167 6 -16.5 10s-10.666 7.66699 -15.999 11c2.66699 -20 7 -41.333 13 -64s13.167 -43.834 21.5 -63.501s18 -36.334 29 -50.001s23 -21.5 36 -23.5s26.667 3.16699 41 15.5
s29.5 34.833 45.5 67.5c4.66699 4.66699 9.33398 5.83398 14.001 3.50098s6 -6.5 4 -12.5l-15 -27c-5.33301 -10 -11.5 -19.667 -18.5 -29s-14.833 -17.5 -23.5 -24.5s-18.334 -11.5 -29.001 -13.5c-22 -3.33301 -41.167 2.16699 -57.5 16.5s-30.166 33.166 -41.499 56.499
s-20.166 49.166 -26.499 77.499s-10.5 54.5 -12.5 78.5c-0.666992 0 -1.16699 0.166992 -1.5 0.5s-0.833008 0.5 -1.5 0.5zM41.999 402.004c-5.33301 -23.333 -8.83203 -47.6621 -10.499 -72.9951s-1.83398 -50 -0.500977 -74c9.33301 -5.33301 18.5 -11.833 27.5 -19.5
s18.5 -10.834 28.5 -9.50098c16.667 2 29.667 9.5 39 22.5s15.833 27.833 19.5 44.5s5.16699 33.667 4.5 51s-2.66699 31.666 -6 42.999c-4.66699 14.667 -11.667 27.667 -21 39s-19.166 18.666 -29.499 21.999s-20.333 1.66602 -30 -5.00098
s-16.834 -20.334 -21.501 -41.001z" />
    <glyph glyph-name="f" unicode="f" horiz-adv-x="259" 
d="M12 235c-5.33301 2.66699 -7.83789 6.33398 -7.50488 11.001s3.5 7.66699 9.5 9c4.66699 -0.666992 11.334 0.5 20.001 3.5s18.334 8.5 29.001 16.5c1.33301 19.333 3 37 5 53s4 29.667 6 41c8 43.333 14 77.833 18 103.5s8 47.167 12 64.5s8.66699 32.5 14 45.5
s13 28.833 23 47.5c8.66699 16 19.334 26.167 32.001 30.5s24.5 3.66602 35.5 -2.00098s20 -15.667 27 -30s9.16699 -32.166 6.5 -53.499c-1.33301 -12.667 -3.16602 -25.334 -5.49902 -38.001s-6.16602 -25 -11.499 -37c-4.66699 -12 -11.667 -28.5 -21 -49.5
s-20.333 -43.167 -33 -66.5s-26.5 -46 -41.5 -68s-30.5 -39.333 -46.5 -52c-4 -53.333 -7 -111.333 -9 -174c26 14.667 53.167 19 81.5 13s52.5 -27 72.5 -63c12 -22 19.5 -50 22.5 -84s2.33301 -68.667 -2 -104s-12.333 -69 -24 -101s-25.834 -57.333 -42.501 -76
c-9.33301 -10 -18.5 -15 -27.5 -15s-17.5 3 -25.5 9s-15.333 13.833 -22 23.5s-12 19.167 -16 28.5c-6.66699 15.333 -12.167 35 -16.5 59s-8 50.5 -11 79.5s-5.16699 59.833 -6.5 92.5s-2 65.667 -2 99c-5.33301 -5.33301 -10.333 -11.166 -15 -17.499
s-8.66699 -12.833 -12 -19.5c-4 -6 -8.5 -7.5 -13.5 -4.5s-6.5 7.5 -4.5 13.5c12 22 27 40.333 45 55c0.666992 30.667 1.5 60.5 2.5 89.5s2.16699 56.5 3.5 82.5c-10.667 -6 -20.167 -10.833 -28.5 -14.5s-15.166 -3.83398 -20.499 -0.500977zM210.995 29
c-9.33301 17.333 -19.5029 30.502 -30.5029 39.502s-22.5 14.667 -34.5 17s-24.167 1.66602 -36.5 -2.00098s-24.166 -9.5 -35.499 -17.5c-1.33301 -62 0.666992 -122.5 6 -181.5s15 -110.833 29 -155.5c13.333 -27.333 26.333 -41.333 39 -42s24.334 7.16602 35.001 23.499
s19.834 38.833 27.501 67.5s13 58.667 16 90s3.5 61.5 1.5 90.5s-7.66699 52.5 -17 70.5zM93.9922 366.002l-4.00488 -35l-4 -37c14 13.333 27.333 29.333 40 48s24.334 38 35.001 58s19.834 39.667 27.501 59s13.834 36 18.501 50l7 26
c2.66699 10 4.83398 20.5 6.50098 31.5s2.5 21.667 2.5 32s-1.33301 19.833 -4 28.5c-2 6.66699 -5.83301 11 -11.5 13s-11.5 2.16699 -17.5 0.5s-12 -4.66699 -18 -9s-10.667 -8.83301 -14 -13.5c-9.33301 -14.667 -17.666 -33.334 -24.999 -56.001
s-13.5 -46.167 -18.5 -70.5s-9.16699 -47.666 -12.5 -69.999s-6 -40.833 -8 -55.5z" />
    <glyph glyph-name="g" unicode="g" horiz-adv-x="300" 
d="M201 447c4 -4.66699 4.49316 -9.33594 1.49316 -14.0029s-7.16699 -5.66699 -12.5 -3c-14.667 11.333 -30.834 19.333 -48.501 24s-32.167 1.66699 -43.5 -9c-17.333 -16.667 -31.333 -39.334 -42 -68.001s-18.334 -59 -23.001 -91s-6.83398 -63.833 -6.50098 -95.5
s2.5 -58.834 6.5 -81.501c4 -20 10.5 -36.333 19.5 -49s19 -20 30 -22s22.333 2.16699 34 12.5s22.167 28.166 31.5 53.499c5.33301 14 10 30.5 14 49.5s7.66699 39.167 11 60.5s6.33301 43.166 9 65.499s5 43.833 7 64.5c1.33301 7.33301 4.83301 10.833 10.5 10.5
s8.83398 -4.16602 9.50098 -11.499c3.33301 -48 10 -94.833 20 -140.5s20.667 -91.834 32 -138.501c4 1.33301 8.16699 2.33301 12.5 3l13.5 2c6 -1.33301 9.16699 -4.5 9.5 -9.5s-2.5 -8.5 -8.5 -10.5l-11.5 -2c-3.66699 -0.666992 -7.5 -1.66699 -11.5 -3l2 -6
c6 -25.333 11.667 -51.666 17 -78.999s8.66602 -54 9.99902 -80c1.33301 -18 1.83301 -33.833 1.5 -47.5s-1.16602 -26.334 -2.49902 -38.001s-3.16602 -22.667 -5.49902 -33s-5.16602 -21.166 -8.49902 -32.499c-6 -22 -15.5 -43.5 -28.5 -64.5s-27.167 -36.667 -42.5 -47
s-31.166 -12.666 -47.499 -6.99902s-31.5 24.834 -45.5 57.501c-7.33301 18 -12.166 39 -14.499 63s-2.16602 48.833 0.500977 74.5s7.66699 51.667 15 78s17 50.833 29 73.5s26.333 42.834 43 60.501s35.334 31.167 56.001 40.5c-8 34.667 -16.333 68.334 -25 101.001
s-15.667 64.334 -21 95.001l-8 -48.5c-2.66699 -16.333 -5.66699 -32.5 -9 -48.5c-2 -10 -4.33301 -20.667 -7 -32s-5.66699 -22.5 -9 -33.5s-7.66602 -21.5 -12.999 -31.5s-12 -19 -20 -27c-13.333 -12.667 -26.666 -18.667 -39.999 -18s-25.5 5.33398 -36.5 14.001
s-20.333 20.167 -28 34.5s-12.5 28.833 -14.5 43.5c-4 23.333 -6.33301 52 -7 86s1.33301 68.333 6 103s12.834 67 24.501 97s28.167 53 49.5 69c2 1.33301 6.16699 3.5 12.5 6.5s14.333 4.66699 24 5s21 -1.16699 34 -4.5s27.833 -10.333 44.5 -21zM222.993 -348.002
c18 28 31 57.666 39 88.999s12.167 63.333 12.5 96s-2 66 -7 100s-11.167 67.667 -18.5 101c-24 -11.333 -44.667 -29.166 -62 -53.499s-31.333 -51 -42 -80s-18.167 -58.333 -22.5 -88s-5.5 -55.5 -3.5 -77.5c0.666992 -7.33301 2.5 -16.5 5.5 -27.5s6.83301 -22 11.5 -33
s10.334 -21.167 17.001 -30.5s13.667 -16 21 -20s15.166 -4.5 23.499 -1.5s16.833 11.5 25.5 25.5z" />
    <glyph glyph-name="h" unicode="h" horiz-adv-x="240" 
d="M20 658c1.33301 7.33301 4.66309 11.0029 9.99609 11.0029s8.66602 -3.66699 9.99902 -11c0 -75.333 -0.333008 -150.5 -1 -225.5s-0.333984 -150.167 0.999023 -225.5c0 -3.33301 0.333008 -12.333 1 -27s1.33398 -30.667 2.00098 -48s1.5 -34 2.5 -50
s2.16699 -27 3.5 -33c8 20.667 13.5 42 16.5 64s6.83301 43.667 11.5 65l13.5 62l16 72c5.66699 24.667 11.834 48.834 18.501 72.501s13.5 44.5 20.5 62.5s14 32.167 21 42.5s14.167 14.5 21.5 12.5c6 -5.33301 10.167 -10.833 12.5 -16.5s3.83301 -12.5 4.5 -20.5
s0.833984 -18.167 0.500977 -30.5s-0.5 -27.833 -0.5 -46.5s-0.833008 -41.334 -2.5 -68.001s-3 -55.167 -4 -85.5s-0.833008 -61 0.5 -92s4.66602 -60 9.99902 -87s13.666 -50.833 24.999 -71.5s26.666 -35.334 45.999 -44.001c6 -2.66699 8.16699 -6.5 6.5 -11.5
s-5.5 -7.5 -11.5 -7.5c-20 7.33301 -36 19 -48 35s-21.5 34.667 -28.5 56s-11.667 44.333 -14 69s-3.66602 49.167 -3.99902 73.5s-0.166016 47.833 0.500977 70.5s0.666992 42.667 0 60c0 1.33301 0.333008 6.66602 1 15.999s1.33398 20.666 2.00098 33.999
s1.16699 27.833 1.5 43.5s0.333008 30.334 0 44.001s-1.16602 25.5 -2.49902 35.5s-3 16.333 -5 19c-21.333 -47.333 -37.5 -97 -48.5 -149l-32.5 -154c-4.66699 -20.667 -8.16699 -37.334 -10.5 -50.001l-5.5 -30.5c-1.33301 -7.66699 -2.33301 -13.667 -3 -18
s-1.83398 -8.83301 -3.50098 -13.5l-6 -17c-2.33301 -6.66699 -5.83301 -15.667 -10.5 -27c-2.66699 -3.33301 -5.66699 -5.16602 -9 -5.49902s-6.33301 1.5 -9 5.5c-11.333 30 -17.166 61.167 -17.499 93.5s-1.16602 64.166 -2.49902 95.499
c-1.33301 76 -1.66602 151.333 -0.999023 226s1 149.667 1 225z" />
    <glyph glyph-name="i" unicode="i" horiz-adv-x="121" 
d="M40 462c1.33301 7.33301 4.66992 10.9961 10.0029 10.9961s8.66602 -3.66699 9.99902 -11c-0.666992 -35.333 -1.83398 -70.666 -3.50098 -105.999s-2.83398 -70.833 -3.50098 -106.5s0.333008 -71.167 3 -106.5s8.33398 -70 17.001 -104
c1.33301 -7.33301 -1 -11.333 -7 -12s-10 2.33301 -12 9c-8.66699 34.667 -14.334 69.834 -17.001 105.501s-3.83398 71.334 -3.50098 107.001s1.33301 71.334 3 107.001s2.83398 71.167 3.50098 106.5zM61.0039 627.996
c6.66699 -0.666992 9.50098 -3.00098 8.50098 -7.00098s-3.5 -7.5 -7.5 -10.5s-8.33301 -4.16699 -13 -3.5s-7.33398 5.33398 -8.00098 14.001l1 1v1c2 1.33301 4 2.5 6 3.5s6.33301 1.5 13 1.5z" />
    <glyph glyph-name="j" unicode="j" horiz-adv-x="119" 
d="M48 481c6 1.33301 9.83594 -0.332031 11.5029 -4.99902s0.5 -8.66699 -3.5 -12c-1.33301 -32 -1.33301 -60.333 0 -85s3.66602 -51 6.99902 -79c2.66699 -35.333 6.5 -70.833 11.5 -106.5s9.5 -71.5 13.5 -107.5s7 -71.833 9 -107.5s2 -71.5 0 -107.5
c-1.33301 -24.667 -4.83301 -49.5 -10.5 -74.5s-13 -48.667 -22 -71s-19.333 -42.833 -31 -61.5s-24.5 -34.334 -38.5 -47.001c-10.667 -9.33301 -22 -17 -34 -23s-23.5 -9.16699 -34.5 -9.5s-20.833 2.5 -29.5 8.5s-15.334 16 -20.001 30l-19 66c-2 6.66699 0 11 6 13
s10 -0.333008 12 -7c3.33301 -10 6 -20.333 8 -31s5.33301 -20.667 10 -30c10.667 -20 23.167 -29 37.5 -27s28.666 10 42.999 24s28 31.167 41 51.5s23.5 38.166 31.5 53.499c16.667 40.667 26.5 84.834 29.5 132.501s2.66699 96.5 -1 146.5s-9 99.333 -16 148
s-12.5 94.334 -16.5 137.001c0 2.66699 -1.33301 13.167 -4 31.5s-4.5 38.166 -5.5 59.499s-0.833008 41 0.5 59s6 28.333 14 31zM51.0029 628.002c7.33301 -1.33301 10.666 -4.99902 9.99902 -10.999s-4.66699 -9 -12 -9h-9c-1.33301 0 -2.16602 0.166992 -2.49902 0.5
s-0.833008 0.5 -1.5 0.5c-2 0.666992 -3.33301 2 -4 4v1c-0.666992 1.33301 -1 3.66602 -1 6.99902l1 1v1l3 2c1.33301 1.33301 2.33301 2 3 2c0.666992 0.666992 1.66699 1 3 1h10z" />
    <glyph glyph-name="k" unicode="k" horiz-adv-x="257" 
d="M18 634c1.33301 7.33301 4.66602 11.002 9.99902 11.002s8.66602 -3.66699 9.99902 -11v-523c0 3.33301 1.5 11.166 4.5 23.499s7 27.166 12 44.499s10.833 36.5 17.5 57.5s13.834 42 21.501 63s15.5 41 23.5 60s16 35.5 24 49.5l1 2v-1
c4 3.33301 8.16699 3.83301 12.5 1.5s5.5 -6.5 3.5 -12.5c-16 -36 -31.333 -72.167 -46 -108.5s-27.334 -73.833 -38.001 -112.5c-2.66699 -9.33301 -5.16699 -18.666 -7.5 -27.999s-4.5 -18.666 -6.5 -27.999c0 -24 6.66699 -41.833 20 -53.5s29.5 -19 48.5 -22
s39.167 -2.66699 60.5 1s40 8.5 56 14.5c6 1.33301 10 -0.5 12 -5.5s0.333008 -9.16699 -5 -12.5c-16 -6.66699 -33.833 -11.834 -53.5 -15.501s-39 -4.83398 -58 -3.50098s-36.5 6 -52.5 14s-28.333 20 -37 36l-6 -29c-2 -10 -4.33301 -19.667 -7 -29
c-7.33301 -7.33301 -12.166 -10 -14.499 -8s-4.16602 4.66699 -5.49902 8v617v0z" />
    <glyph glyph-name="l" unicode="l" horiz-adv-x="92" 
d="M46 674c0 -55.333 -0.333984 -110.668 -1.00098 -166.001s-0.666992 -110.666 0 -165.999s2.33398 -110.666 5.00098 -165.999s7.33398 -110.666 14.001 -165.999c-2 -6 -5.5 -8.83301 -10.5 -8.5s-8.16699 3.16602 -9.5 8.49902
c-6.66699 55.333 -11.334 110.833 -14.001 166.5s-4.33398 111.334 -5.00098 167.001s-0.666992 111.334 0 167.001s1 111.5 1 167.5c0.666992 5.33301 3.33398 8.66602 8.00098 9.99902h3l4 -2l1 -1c1.33301 -1.33301 2 -2.33301 2 -3
c0.666992 -0.666992 1 -1.33398 1 -2.00098s0.333008 -1.33398 1 -2.00098v-4v0z" />
    <glyph glyph-name="m" unicode="m" horiz-adv-x="407" 
d="M12 458c1.33301 7.33301 4.6582 10.9854 9.99121 10.9854s8.66602 -3.66699 9.99902 -11c0 -14 0.166992 -32 0.5 -54s1 -45.833 2 -71.5l3 -79.5c1 -27.333 2.16699 -53.333 3.5 -78s3 -47.167 5 -67.5s4.33301 -36.166 7 -47.499
c4.66699 8.66699 9.16699 20.334 13.5 35.001s8.5 30.834 12.5 48.501s7.83301 35.834 11.5 54.501l10 52.5l8 43.5c2.33301 12.667 4.16602 21.667 5.49902 27c1.33301 4.66699 3.33301 12.834 6 24.501s5.83398 23.834 9.50098 36.501s7.83398 24.167 12.501 34.5
s9.66699 16.833 15 19.5c2.66699 0.666992 6 0 10 -2c8 -8 13.5 -19.333 16.5 -34s4.66699 -30.5 5 -47.5s0 -33.667 -1 -50s-1.5 -29.5 -1.5 -39.5c0 -5.33301 0.5 -14.166 1.5 -26.499s2.33301 -25.5 4 -39.5s3.83398 -27 6.50098 -39s6 -20.333 10 -25
c11.333 14.667 20.833 33.834 28.5 57.501s14.334 48.667 20.001 75l16.5 77.5c5.33301 25.333 11 47.666 17 66.999c2 5.33301 5.33301 8 10 8s7.66699 -2.66699 9 -8c4.66699 -17.333 7.66699 -37.166 9 -59.499s2.33301 -45.5 3 -69.5s1.66699 -48 3 -72
s4.33301 -46.833 9 -68.5s11.334 -41.167 20.001 -58.5s21 -31 37 -41c4 -4.66699 4.5 -9.33398 1.5 -14.001s-7.16699 -5.66699 -12.5 -3c-15.333 7.33301 -27.666 19 -36.999 35s-16.833 34.167 -22.5 54.5s-9.5 42.333 -11.5 66s-3.5 46.834 -4.5 69.501
s-1.66699 44.334 -2 65.001s-1.5 38.334 -3.5 53.001c-4 -13.333 -8.16699 -33 -12.5 -59s-9.66602 -52.333 -15.999 -79s-14.166 -51.167 -23.499 -73.5s-21 -36.833 -35 -43.5c-3.33301 -0.666992 -7.33301 0.333008 -12 3c-8 6.66699 -14.167 17.334 -18.5 32.001
s-7.16602 31.334 -8.49902 50.001s-2 38.334 -2 59.001s-0.166992 40.667 -0.5 60s-1.16602 37 -2.49902 53s-4 28.667 -8 38c-6.66699 -13.333 -11.667 -28 -15 -44s-6.66602 -31 -9.99902 -45c-9.33301 -40 -17.333 -79.5 -24 -118.5s-17.334 -79.167 -32.001 -120.5
c-8 -25.333 -14.667 -40.833 -20 -46.5s-9.83301 -5.16699 -13.5 1.5s-6.66699 17.334 -9 32.001s-4.16602 29.334 -5.49902 44.001l-5 50l-7 99c-2 34 -3.33301 67.333 -4 100z" />
    <glyph glyph-name="n" unicode="n" horiz-adv-x="291" 
d="M12 399c1.33301 7.33301 4.66895 11.0039 10.002 11.0039s8.66602 -3.66699 9.99902 -11c4 -26 7 -52 9 -78s4.33301 -52 7 -78s5.66699 -52 9 -78s8.66602 -51.667 15.999 -77c5.33301 12.667 9.66602 31.167 12.999 55.5s6.5 51 9.5 80l9.5 88.5
c3.33301 30 7.83301 57.167 13.5 81.5s12.834 44.166 21.501 59.499s19.667 23 33 23c12.667 0 22.5 -9.83301 29.5 -29.5s12.333 -44.667 16 -75s6.66699 -63.5 9 -99.5s5.33301 -70.833 9 -104.5s8.5 -63.667 14.5 -90s15 -44.5 27 -54.5
c6 -7.33301 13.5 -14.666 22.5 -21.999s17.5 -13.666 25.5 -18.999c4 -4.66699 4.5 -9.33398 1.5 -14.001s-7.16699 -5.66699 -12.5 -3c-8.66699 6 -17.334 11.667 -26.001 17s-17.334 11.333 -26.001 18c-11.333 8.66699 -20.166 25.334 -26.499 50.001
s-11.666 53.167 -15.999 85.5s-8 66.5 -11 102.5s-6 69.333 -9 100s-7 56.667 -12 78s-11.5 34 -19.5 38c-2 0 -3.66699 -0.333008 -5 -1c-8 -4 -14.333 -13.833 -19 -29.5s-8.66699 -34.834 -12 -57.501s-6.33301 -47.834 -9 -75.501s-5.66699 -55.834 -9 -84.501
s-7.33301 -56.5 -12 -83.5s-11 -50.833 -19 -71.5c-2.66699 -2 -6.66699 -2 -12 0s-9 4.66699 -11 8c-8 28 -14.333 56 -19 84s-8.5 56.167 -11.5 84.5s-5.83301 56.666 -8.5 84.999s-6 57.166 -10 86.499z" />
    <glyph glyph-name="o" unicode="o" horiz-adv-x="256" 
d="M58 463c15.333 11.333 30.165 17.0039 44.498 17.0039s27.5 -3.16699 39.5 -9.5s22.5 -14.666 31.5 -24.999s16.5 -19.833 22.5 -28.5c5.33301 -8 10.666 -20.5 15.999 -37.5s9.83301 -36.5 13.5 -58.5s6 -45.667 7 -71s0 -50.333 -3 -75s-8.33301 -48.167 -16 -70.5
s-18.5 -41.5 -32.5 -57.5c-22 -24.667 -42 -36.334 -60 -35.001s-33.5 9.66602 -46.5 24.999s-23.5 34.333 -31.5 57s-13.667 42.667 -17 60s-5.66602 32.833 -6.99902 46.5s-2 27 -2 40s0.166992 26.167 0.5 39.5s0.833008 28.666 1.5 45.999
c0.666992 14.667 1.83398 29.167 3.50098 43.5s4 27.666 7 39.999s6.83301 23.166 11.5 32.499s10.334 16.333 17.001 21zM142.999 443.004c-5.33301 3.33301 -11.1699 6.33496 -17.5029 9.00195s-13 4.16699 -20 4.5s-13.667 -0.5 -20 -2.5s-11.833 -5.66699 -16.5 -11
c-8 -12 -14.667 -28.5 -20 -49.5s-9 -44.5 -11 -70.5s-2.5 -53 -1.5 -81s3.83301 -54.667 8.5 -80s11.167 -48.166 19.5 -68.499s18.5 -35.5 30.5 -45.5c10.667 -8 22.834 -10.333 36.501 -7s25.167 9.66602 34.5 18.999c11.333 13.333 20.833 30.666 28.5 51.999
s13.334 44.333 17.001 69s5 50.167 4 76.5s-4.33301 51.333 -10 75s-13.667 45.167 -24 64.5s-23.166 34.666 -38.499 45.999z" />
    <glyph glyph-name="p" unicode="p" horiz-adv-x="284" 
d="M9 402c-2.66699 2 -3.66797 5.33691 -3.00098 10.0039c1.33301 5.33301 4 8.83301 8 10.5s7.66699 0.166992 11 -4.5c2.66699 -4 5.16699 -12.833 7.5 -26.5s4.5 -29.834 6.5 -48.501s4 -38.5 6 -59.5l5.5 -59c1.66699 -18.333 3.16699 -33.833 4.5 -46.5
s2.66602 -20.334 3.99902 -23.001c2.66699 30 6.66699 61.833 12 95.5s11.666 64.5 18.999 92.5l10.5 34.5c4.33301 14.333 9.33301 28.5 15 42.5s12 26.833 19 38.5s14.167 19.834 21.5 24.501c16 9.33301 29.833 12.333 41.5 9s23.834 -18 36.501 -44
c12.667 -27.333 21 -58.166 25 -92.499s5 -68.666 3 -102.999s-6.33301 -67 -13 -98s-14.334 -56.5 -23.001 -76.5c-7.33301 -16.667 -16.666 -31.834 -27.999 -45.501s-23.5 -23.834 -36.5 -30.501s-26.333 -8.33398 -40 -5.00098s-25.834 13.666 -36.501 30.999
c-3.33301 6 -2.5 11.667 2.5 17s9.5 5.33301 13.5 0c10 -15.333 20 -24.333 30 -27s19.667 -1.33398 29 3.99902s18.166 13.833 26.499 25.5s15.5 24.167 21.5 37.5c10.667 23.333 19 50.333 25 81s9.33301 62.167 10 94.5s-1.16602 64 -5.49902 95
s-11.166 58.5 -20.499 82.5c-2 4.66699 -4.66699 9.66699 -8 15s-7 9.66602 -11 12.999s-8.5 5.33301 -13.5 6s-10.5 -1.33301 -16.5 -6c-25.333 -35.333 -44.333 -75 -57 -119s-21.167 -90.167 -25.5 -138.5s-6 -97.666 -5 -147.999s2.83301 -99.5 5.5 -147.5l6 -48.5
c2 -16.333 3.33301 -32.5 4 -48.5c0 -4 0.333008 -7 1 -9l-3 1c-2 -3.33301 -5 -4.83301 -9 -4.5s-7 2.83301 -9 7.5v1c-3.33301 24 -6.16602 48.167 -8.49902 72.5s-4.16602 48.833 -5.49902 73.5v5z" />
    <glyph glyph-name="q" unicode="q" horiz-adv-x="265" 
d="M233 430c1.33301 -7.33301 -0.999023 -11.3311 -6.99902 -11.998s-10 2.33301 -12 9c-1.33301 8 -2.66602 14.333 -3.99902 19c-1.33301 1.33301 -2.66602 2 -3.99902 2c-19.333 -7.33301 -37.333 -20.666 -54 -39.999s-31.834 -41 -45.501 -65
s-25.667 -48.167 -36 -72.5s-18.5 -45.5 -24.5 -63.5l-9 -27c-3.33301 -10 -5.83301 -20 -7.5 -30s-1.5 -19.5 0.5 -28.5s7 -16.833 15 -23.5c10.667 2 20 7.33301 28 16s15 18.667 21 30s11 23 15 35l10 30c0.666992 1.33301 3.16699 10.166 7.5 26.499s9.5 34.5 15.5 54.5
s12.167 39 18.5 57s12.166 30 17.499 36c3.33301 3.33301 7.33301 4.66602 12 3.99902c8 -1.33301 11.667 -5.83301 11 -13.5s-0.666992 -14.167 0 -19.5c4 -68 6 -135.667 6 -203c0 -38 0.333008 -75.667 1 -113s2 -74.666 4 -111.999c12 6.66699 25.833 12.5 41.5 17.5
s31.334 7.83301 47.001 8.5s30.167 -1.66602 43.5 -6.99902s24 -15.333 32 -30c8 -8.66699 13.667 -20.667 17 -36s4.83301 -32.5 4.5 -51.5s-2.5 -38.5 -6.5 -58.5s-9.16699 -39.167 -15.5 -57.5s-14 -34.5 -23 -48.5s-18.5 -24.333 -28.5 -31
c-21.333 -13.333 -39.666 -14.5 -54.999 -3.5s-27.333 27.167 -36 48.5c-13.333 32.667 -23.166 66.167 -29.499 100.5s-10.833 69.5 -13.5 105.5c-16 -17.333 -28.5 -37.666 -37.5 -60.999s-14.167 -47.666 -15.5 -72.999c-2 -6 -5.5 -8.83301 -10.5 -8.5
s-8.16699 3.16602 -9.5 8.49902c1.33301 18.667 3.66602 36.667 6.99902 54s9.66602 34.333 18.999 51c11.333 22 26.333 40.667 45 56c-2 41.333 -2.66699 82.166 -2 122.499s1 79.833 1 118.5c0 8 0.166992 20.833 0.5 38.5s0.5 36.667 0.5 57s-0.166992 40.5 -0.5 60.5
s-1.5 36.333 -3.5 49c-6 -11.333 -10.333 -24.5 -13 -39.5s-5.66699 -28.167 -9 -39.5c-4.66699 -16.667 -9.5 -36.5 -14.5 -59.5s-14.167 -47.5 -27.5 -73.5c-2 -4 -6 -10.5 -12 -19.5s-13 -17.667 -21 -26s-16.667 -14.833 -26 -19.5s-18 -4.33398 -26 0.999023
c-17.333 11.333 -26 25.166 -26 41.499s2 33.5 6 51.5c11.333 44 27.166 87.333 47.499 130s45.5 81 75.5 115l26.5 27.5c9.66699 9.66699 19 16.5 28 20.5s17.167 3.66699 24.5 -1s12.666 -16.334 15.999 -35.001zM315.001 -69.998c-40 2 -74.001 -7 -102.001 -27
c0.666992 -27.333 2.66699 -54.333 6 -81c4 -18 8.16699 -38.167 12.5 -60.5s9.83301 -42.833 16.5 -61.5s15.167 -33.167 25.5 -43.5s23.5 -12.833 39.5 -7.5c12.667 11.333 24.334 28.333 35.001 51s18.667 46.5 24 71.5s7.33301 49.5 6 73.5s-7.33301 43.333 -18 58
c-5.33301 7.33301 -12 13.5 -20 18.5s-16.333 7.83301 -25 8.5z" />
    <glyph glyph-name="r" unicode="r" horiz-adv-x="235" 
d="M23 453c-6 3.33301 -8.49805 7.6709 -7.49805 13.0039s5.16699 7.33301 12.5 6c5.33301 1.33301 11 -6.66699 17 -24s11.833 -40.5 17.5 -69.5s10.5 -61.833 14.5 -98.5s7 -73.667 9 -111c2 28.667 4.66699 61.5 8 98.5s9 72.333 17 106s19.5 62.834 34.5 87.501
s35.833 39.334 62.5 44.001c6 -1.33301 9.16699 -4.5 9.5 -9.5s-2.5 -8.5 -8.5 -10.5c-18.667 -2 -34.5 -14.833 -47.5 -38.5s-23.833 -52.834 -32.5 -87.501s-15.334 -72.334 -20.001 -113.001s-8.16699 -78.834 -10.5 -114.501s-3.66602 -66.667 -3.99902 -93
s-0.5 -42.166 -0.5 -47.499c-2.66699 -3.33301 -6.16699 -5.5 -10.5 -6.5s-6.83301 1.16699 -7.5 6.5c-0.666992 9.33301 -1.33398 24.166 -2.00098 44.499s-1.83398 43.666 -3.50098 69.999s-3.66699 55 -6 86s-5.33301 61.667 -9 92s-7.83398 59.666 -12.501 87.999
s-10 53.166 -16 74.499c-1.33301 2.66699 -2.66602 5 -3.99902 7z" />
    <glyph glyph-name="s" unicode="s" horiz-adv-x="297" 
d="M186 489c4 -4.66699 4.49805 -9.33398 1.49805 -14.001s-7.16699 -5.66699 -12.5 -3c-12 8.66699 -24 11.834 -36 9.50098s-23.5 -7.83301 -34.5 -16.5s-21 -19.834 -30 -33.501s-16.667 -27.667 -23 -42s-10.833 -28.333 -13.5 -42s-3 -24.834 -1 -33.501
c2.66699 -10 8.16699 -18.167 16.5 -24.5s18 -11.333 29 -15s22 -6.66699 33 -9s20.167 -4.5 27.5 -6.5c20 -5.33301 39.667 -11.5 59 -18.5s35.5 -16.333 48.5 -28s21.333 -26.334 25 -44.001s0.166992 -39.167 -10.5 -64.5c-6.66699 -16 -16 -30.667 -28 -44
s-25.5 -24.666 -40.5 -33.999s-31 -16.166 -48 -20.499s-34.5 -5.16602 -52.5 -2.49902c-7.33301 1.33301 -16 3.16602 -26 5.49902s-17.667 6.5 -23 12.5c-16.667 17.333 -26.334 36.666 -29.001 57.999s-4 43.333 -4 66c1.33301 7.33301 4.66602 11 9.99902 11
s8.66602 -3.66699 9.99902 -11c0 -16 0.333008 -33 1 -51s5.66699 -33.667 15 -47c8.66699 -12.667 20.334 -20.5 35.001 -23.5s29.834 -3 45.501 0s30.834 8 45.501 15s26.667 14.5 36 22.5c8.66699 8 15.5 16.667 20.5 26l15.5 28c1.33301 4 2 6.66699 2 8
c6.66699 24.667 6.66699 44 0 58s-17.334 25 -32.001 33s-32.167 14.167 -52.5 18.5s-40.166 9.33301 -59.499 15s-37.166 12.834 -53.499 21.501s-27.833 21.667 -34.5 39c-5.33301 12 -6.66602 26.167 -3.99902 42.5s8 32.833 16 49.5s18.167 32.5 30.5 47.5
s25.5 27.167 39.5 36.5s28.5 14.833 43.5 16.5s29.167 -2.16602 42.5 -11.499z" />
    <glyph glyph-name="t" unicode="t" horiz-adv-x="220" 
d="M14 388c-6 0 -9.50098 2.50098 -10.501 7.50098s1.16699 8.83301 6.5 11.5c27.333 6.66699 56 12.667 86 18l9.5 123c3 40.667 5.5 82 7.5 124c1.33301 7.33301 4.66602 11 9.99902 11s8.66602 -3.66699 9.99902 -11
c-1.33301 -41.333 -3.66602 -82.166 -6.99902 -122.499l-10 -121.5l75 12c6 -1.33301 9.16699 -4.5 9.5 -9.5s-2.5 -8.5 -8.5 -10.5c-13.333 -2.66699 -26.166 -4.83398 -38.499 -6.50098s-25.166 -3.5 -38.499 -5.5l-4 -61.5c-1.33301 -20.333 -2.33301 -40.5 -3 -60.5
c-1.33301 -47.333 -2 -95.833 -2 -145.5s6.66699 -97.5 20 -143.5c3.33301 -10.667 7.5 -20.834 12.5 -30.501s9.83301 -19.834 14.5 -30.501c2.66699 -6 1.5 -10.667 -3.5 -14s-9.5 -1.66602 -13.5 5.00098l-28 62c-4.66699 10.667 -8.33398 24.5 -11.001 41.5
s-4.83398 34.667 -6.50098 53s-2.83398 36 -3.50098 53s-1 30.5 -1 40.5c-0.666992 38 -0.166992 75.833 1.5 113.5s3.83398 75.5 6.50098 113.5c-13.333 -2 -26.666 -4.33301 -39.999 -7s-26.666 -5.66699 -39.999 -9z" />
    <glyph glyph-name="u" unicode="u" horiz-adv-x="271" 
d="M52 232c0 -2 1.16309 -10.8311 3.49609 -26.498s5.5 -33.334 9.5 -53.001s9.16699 -38.834 15.5 -57.501s13.833 -32.334 22.5 -41.001c10.667 8.66699 19.5 20.167 26.5 34.5s12.667 29.833 17 46.5s7.83301 33.5 10.5 50.5s5.33398 32.5 8.00098 46.5
c4 19.333 8.16699 46.666 12.5 81.999s7.83301 73 10.5 113c1.33301 15.333 2.16602 30.5 2.49902 45.5s0.833008 30.167 1.5 45.5c5.33301 10 12 9.66699 20 -1c0 -24.667 -0.5 -49.167 -1.5 -73.5s-2.83301 -48.5 -5.5 -72.5
c-1.33301 -32 -2.16602 -64.833 -2.49902 -98.5s0.333984 -66.334 2.00098 -98.001s5 -61.5 10 -89.5s12.5 -52.333 22.5 -73c3.33301 -6.66699 7.5 -12.834 12.5 -18.501s9.83301 -11.5 14.5 -17.5c2 -5.33301 1.16699 -9.5 -2.5 -12.5s-8.16699 -2.83301 -13.5 0.5
c-4.66699 6.66699 -10 13 -16 19s-10.333 12.667 -13 20c-11.333 30 -19.666 63 -24.999 99s-8.66602 72.333 -9.99902 109c-6 -17.333 -11 -35 -15 -53s-8.5 -35 -13.5 -51s-11 -30.5 -18 -43.5s-16.5 -23.833 -28.5 -32.5c-6 -1.33301 -11.333 -0.333008 -16 3
c-14.667 18.667 -26.334 39.834 -35.001 63.501s-15.334 48.334 -20.001 74.001s-8 51.5 -10 77.5s-3.66699 51.333 -5 76s-2.83301 47.834 -4.5 69.501s-4.83398 40.834 -9.50098 57.501c-1.33301 5.33301 0.333984 9.5 5.00098 12.5s8.66699 1.83301 12 -3.5
c2 -4 3.83301 -11.5 5.5 -22.5s3.33398 -24.167 5.00098 -39.5s3.33398 -31.5 5.00098 -48.5s3.16699 -33.333 4.5 -49l3.5 -42.5c1 -12.667 1.83301 -21.667 2.5 -27z" />
    <glyph glyph-name="v" unicode="v" horiz-adv-x="198" 
d="M21 340c-1.33301 7.33301 -3.49805 15.333 -6.49805 24s-5.33301 17 -7 25s-2 15 -1 21s4.5 9.66699 10.5 11c3.33301 0.666992 6.33301 -3 9 -11s4.66699 -16.333 6 -25c6 -28.667 11.5 -58.5 16.5 -89.5l15.5 -93c5.33301 -31 11.166 -61.667 17.499 -92
s14.166 -59.5 23.499 -87.5c9.33301 24 15.5 49.167 18.5 75.5l8.5 76.5c6.66699 62 11.834 123.5 15.501 184.5s6.16699 122.5 7.5 184.5c1.33301 7.33301 4.66602 11 9.99902 11s8.66602 -3.66699 9.99902 -11c-1.33301 -62 -3.83301 -123.667 -7.5 -185
s-8.83398 -122.666 -15.501 -183.999c-0.666992 -6 -1.66699 -17.667 -3 -35s-3.5 -35.833 -6.5 -55.5s-7.16699 -38 -12.5 -55s-12.333 -27.833 -21 -32.5c-2.66699 -0.666992 -5.66699 -0.333984 -9 0.999023c-6 4 -10.833 10.5 -14.5 19.5s-6.66699 18.833 -9 29.5
s-4.16602 21 -5.49902 31s-2.66602 18 -3.99902 24c-9.33301 40 -17.333 79.667 -24 119s-14 79 -22 119z" />
    <glyph glyph-name="w" unicode="w" horiz-adv-x="424" 
d="M14 438c1.33301 7.33301 4.67383 10.9941 10.0068 10.9941s8.66602 -3.66699 9.99902 -11c0 -31.333 0.5 -65.5 1.5 -102.5s3.66699 -74 8 -111s11.166 -72.833 20.499 -107.5s22.333 -65.667 39 -93h8c9.33301 13.333 17.666 28.833 24.999 46.5
s13.5 36.334 18.5 56.001s9.16699 40 12.5 61s6 41.5 8 61.5c-0.666992 14 -0.5 27.833 0.5 41.5s3.16699 27.167 6.5 40.5v2h1c2.66699 5.33301 6.16699 7 10.5 5s7.16602 -5.66699 8.49902 -11c-1.33301 -11.333 -2.5 -22.666 -3.5 -33.999s-2.16699 -22.666 -3.5 -33.999
c0 -47.333 7 -95 21 -143c12.667 -34.667 25.834 -55.667 39.501 -63s27 -6.16602 40 3.50098s25 25 36 46s20.167 42.5 27.5 64.5c6.66699 20.667 12 43.667 16 69s5.66699 50.5 5 75.5s-4.5 49.333 -11.5 73s-18.167 44.5 -33.5 62.5
c-6.66699 8 -13.834 15.5 -21.501 22.5s-16.5 11.5 -26.5 13.5c-9.33301 2.66699 -19.166 3.33398 -29.499 2.00098s-20.5 -3 -30.5 -5c-2 -0.666992 -4.16699 -0.166992 -6.5 1.5s-3.83301 4.16699 -4.5 7.5v1c1.33301 5.33301 3.66602 8.66602 6.99902 9.99902
c36 6.66699 65.5 4.33398 88.5 -6.99902s41.167 -28.333 54.5 -51s22.166 -49.334 26.499 -80.001s5.33301 -61.834 3 -93.501s-7.33301 -62.167 -15 -91.5s-16.834 -54.333 -27.501 -75c-18.667 -36 -37 -58.5 -55 -67.5s-34.667 -8.33301 -50 2
s-28.666 27.833 -39.999 52.5s-19.666 52.334 -24.999 83.001c-0.666992 0.666992 -1 2.33398 -1 5.00098c-7.33301 -34 -15.333 -68 -24 -102c-4.66699 -16.667 -10.834 -32.167 -18.501 -46.5s-21.167 -22.5 -40.5 -24.5c-10.667 -1.33301 -20.334 6.33398 -29.001 23.001
s-16.167 38.334 -22.5 65.001s-11.833 56.5 -16.5 89.5s-8.33398 65.667 -11.001 98s-4.5 62.666 -5.5 90.999s-1.16699 50.833 -0.5 67.5z" />
    <glyph glyph-name="x" unicode="x" horiz-adv-x="307" 
d="M28 455c-5.33301 -2 -9.33887 -0.672852 -12.0059 3.99414s-2 9 2 13c12 8.66699 24.833 8.66699 38.5 0s26.334 -20.167 38.001 -34.5s21.667 -28.833 30 -43.5l15.5 -27l28 -49l9 20c12 28 24.5 54.833 37.5 80.5s31.5 48.167 55.5 67.5
c6.66699 3.33301 11.334 2.5 14.001 -2.5s1.33398 -9.83301 -3.99902 -14.5c-21.333 -17.333 -38.166 -38.833 -50.499 -64.5l-35.5 -76.5c-2.66699 -5.33301 -5 -10.666 -7 -15.999s-4.33301 -10.666 -7 -15.999c24 -47.333 44.333 -96.166 61 -146.499
s31.167 -101.5 43.5 -153.5s23 -104.333 32 -157l27.5 -156c1.33301 -7.33301 -1 -11.333 -7 -12s-10 2.33301 -12 9l-26.5 150.5c-9 50.333 -19.333 100.5 -31 150.5s-25.167 99.167 -40.5 147.5s-34 95.5 -56 141.5l-1 1c-20.667 -50 -39.5 -101.167 -56.5 -153.5
s-29.833 -105.166 -38.5 -158.499c-1.33301 -3.33301 -3.16602 -5.66602 -5.49902 -6.99902s-4.66602 -1.83301 -6.99902 -1.5s-4.33301 1.5 -6 3.5s-2.16699 4.66699 -1.5 8c9.33301 56.667 23.333 112.834 42 168.501s39 110.167 61 163.5
c-7.33301 14 -16.833 31.167 -28.5 51.5s-23.667 39.333 -36 57s-24.5 32 -36.5 43s-21.667 14.167 -29 9.5z" />
    <glyph glyph-name="y" unicode="y" horiz-adv-x="303" 
d="M14 442c1.33301 7.33301 4.66602 10.9961 9.99902 10.9961s8.66602 -3.66699 9.99902 -11c0 -12.667 -0.166992 -29.834 -0.5 -51.501s-0.5 -45.334 -0.5 -71.001s0.5 -52.167 1.5 -79.5s2.5 -53.666 4.5 -78.999s4.83301 -48.333 8.5 -69s8.5 -36.667 14.5 -48
c4 0 8.5 4.66699 13.5 14s9.83301 19.666 14.5 30.999s8.66699 22.333 12 33s5.33301 17 6 19c10 28.667 18.833 57.334 26.5 86.001l22.5 86.5l22.5 86.5c7.66699 28.667 16.834 57 27.501 85c3.33301 3.33301 6.83301 5 10.5 5s6.16699 -2.66699 7.5 -8
c12 -54.667 18.833 -109.167 20.5 -163.5s3.5 -109.5 5.5 -165.5l2 -49c0.666992 -16 1 -32.333 1 -49c4.66699 -1.33301 9 -2.33301 13 -3s8.33301 -1.33398 13 -2.00098c7.33301 -1.33301 10.666 -5 9.99902 -11s-4.66699 -9 -12 -9
c-6.66699 0.666992 -14.334 2.33398 -23.001 5.00098c0 -24.667 -0.166992 -49.167 -0.5 -73.5s-1.16602 -49.166 -2.49902 -74.499c-1.33301 -27.333 -3.83301 -57.833 -7.5 -91.5s-8.5 -64.5 -14.5 -92.5c-1.33301 -6 -3.5 -14.833 -6.5 -26.5s-6.66699 -23.667 -11 -36
s-9.5 -23.833 -15.5 -34.5s-13 -18 -21 -22c-9.33301 -4.66699 -18.5 -6.66699 -27.5 -6s-17.5 3.33398 -25.5 8.00098s-15.167 10.834 -21.5 18.501s-11.5 15.834 -15.5 24.501c-7.33301 18.667 -12.166 41.334 -14.499 68.001s-2.16602 54.5 0.500977 83.5s8 58.333 16 88
s18.333 57.167 31 82.5s27.667 47.333 45 66s37 31.667 59 39c2 0.666992 3.83301 1.16699 5.5 1.5s3.5 0.5 5.5 0.5c0 16 -0.333008 31.833 -1 47.5l-2 47.5c-1.33301 48.667 -2 97.5 -2 146.5s-5.33301 97.5 -16 145.5c-2.66699 -6.66699 -5 -13.5 -7 -20.5
s-4.66699 -14.167 -8 -21.5c-6 -17.333 -11 -36.666 -15 -57.999s-8.33301 -40.666 -13 -57.999c-2 -9.33301 -5.16699 -22.333 -9.5 -39s-7.83301 -29.667 -10.5 -39c-2 -6.66699 -5.66699 -20 -11 -40s-12 -40.833 -20 -62.5s-16.833 -40.834 -26.5 -57.501
s-19.5 -25 -29.5 -25c-7.33301 0.666992 -13.166 3.66699 -17.499 9s-7.66602 11.666 -9.99902 18.999s-4 14.833 -5 22.5l-2.5 19.5l-6 59c0 4 -0.333008 12.667 -1 26s-1.33398 27.5 -2.00098 42.5s-1.33398 29.167 -2.00098 42.5s-1 22 -1 26
c-0.666992 26 -1.16699 51.5 -1.5 76.5s-0.5 50.167 -0.5 75.5zM232 -112.004c1.33301 25.333 2.16992 50.332 2.50293 74.999s0.5 49.334 0.5 74.001c-1.33301 0 -2.5 -0.166992 -3.5 -0.5s-2.16699 -0.5 -3.5 -0.5c-9.33301 -2 -18.333 -6.5 -27 -13.5
s-16.667 -14.833 -24 -23.5s-14 -17.667 -20 -27s-11 -17.666 -15 -24.999c-10.667 -20 -20.667 -43.167 -30 -69.5s-16.5 -53.333 -21.5 -81s-6.83301 -55.167 -5.5 -82.5s7.66602 -52.333 18.999 -75c5.33301 -11.333 13.666 -21.333 24.999 -30s23.333 -11 36 -7
c14 20.667 25.167 42.667 33.5 66s14.666 47.166 18.999 71.499s7.5 49 9.5 74s3.66699 49.833 5 74.5z" />
    <glyph glyph-name="z" unicode="z" horiz-adv-x="301" 
d="M17 457c-5.33301 -2 -9.33398 -0.666992 -12.001 4s-2 9 2 13c10 6.66699 22.333 10.667 37 12s30 1.33301 46 0s31.833 -3.66602 47.5 -6.99902s29.167 -6 40.5 -8c12 -2 21.333 -7 28 -15s11.167 -17.333 13.5 -28s3 -21.5 2 -32.5s-3.5 -20.167 -7.5 -27.5
c-17.333 -36 -36.833 -70.833 -58.5 -104.5l-64.5 -103.5c-9.33301 -16 -17.333 -34.667 -24 -56s-9.33398 -39.666 -8.00098 -54.999s8.33301 -25.5 21 -30.5s34 0.833008 64 17.5c12 6.66699 23.333 14.167 34 22.5l31.5 24.5l31.5 23.5
c10.667 7.66699 22.334 14.5 35.001 20.5c6 1.33301 10 -0.5 12 -5.5s0.333008 -9.16699 -5 -12.5c-12 -5.33301 -23 -11.333 -33 -18s-20.333 -14.334 -31 -23.001c-13.333 -11.333 -26.666 -22 -39.999 -32s-28.333 -19 -45 -27c-22.667 -7.33301 -41 -10.333 -55 -9
s-24.333 5.83301 -31 13.5s-10.5 17.834 -11.5 30.501s0 26.167 3 40.5s7.66699 29 14 44s13.166 28.833 20.499 41.5c4 7.33301 11.5 18.666 22.5 33.999l35.5 52c12.667 19.333 24.834 39.5 36.501 60.5s20.334 40.667 26.001 59s7.16699 34.5 4.5 48.5s-12 23.333 -28 28
c-5.33301 2 -14.833 4.5 -28.5 7.5s-28.334 5.16699 -44.001 6.5s-31.167 1.66602 -46.5 0.999023s-27 -4 -35 -10z" />
    <glyph glyph-name="braceleft" unicode="{" horiz-adv-x="203" 
d="M182 679c7.33301 1.33301 11.5029 -0.999023 12.5029 -6.99902s-1.83301 -10 -8.5 -12c-25.333 -1.33301 -44.5 -7.33301 -57.5 -18s-22 -23.834 -27 -39.501s-7.16699 -32.5 -6.5 -50.5s1.66699 -35 3 -51c2.66699 -26.667 5.66699 -51.667 9 -75s4.33301 -45.333 3 -66
s-6.33301 -40 -15 -58s-23.667 -34.667 -45 -50c6.66699 -0.666992 12.334 -0.333984 17.001 0.999023s9.16699 2 13.5 2s8.66602 -1.83301 12.999 -5.5s9.5 -10.5 15.5 -20.5c8 -14 12.167 -32 12.5 -54s-0.166992 -44 -1.5 -66s-2.33301 -42.167 -3 -60.5
s2 -30.833 8 -37.5c0.666992 0 5.5 -0.166992 14.5 -0.5s24.167 -0.5 45.5 -0.5c7.33301 -1.33301 10.666 -5 9.99902 -11s-4.66699 -9 -12 -9c-11.333 0 -22.666 -0.5 -33.999 -1.5s-22.333 0.5 -33 4.5c-5.33301 2 -9.16602 5.5 -11.499 10.5s-3.83301 10.333 -4.5 16
s-1 11.334 -1 17.001v13.5c0 12.667 1 26.334 3 41.001s3.33301 29.5 4 44.5s0.166992 29.5 -1.5 43.5s-5.83398 27 -12.501 39c-4.66699 8 -9.5 13.167 -14.5 15.5s-10.5 3.33301 -16.5 3s-12 -0.833008 -18 -1.5s-12.333 0.333008 -19 3c-4 2 -6.5 4.66699 -7.5 8
s0.166992 6.66602 3.5 9.99902c22.667 14.667 39.167 31.5 49.5 50.5s16.666 39 18.999 60s2.16602 42.5 -0.500977 64.5s-5.5 43.667 -8.5 65s-5 41.833 -6 61.5s1.66699 37.667 8 54s17.166 30.333 32.499 42s38 20.167 68 25.5z" />
    <glyph glyph-name="bar" unicode="|" horiz-adv-x="107" 
d="M46 674c0 -36.667 -0.167969 -79.665 -0.500977 -128.998s-0.5 -101.666 -0.5 -156.999s0.166992 -112.333 0.5 -171s1.16602 -115.667 2.49902 -171s3.16602 -107.666 5.49902 -156.999s5.83301 -92.333 10.5 -129c-2 -6 -5.5 -8.83301 -10.5 -8.5
s-8.16699 3.16602 -9.5 8.49902c-4.66699 37.333 -8.16699 80.666 -10.5 129.999s-4.16602 101.833 -5.49902 157.5s-2.16602 112.834 -2.49902 171.501s-0.5 115.834 -0.5 171.501s0.166992 108.167 0.5 157.5s0.5 92.666 0.5 129.999
c0.666992 5.33301 3.33398 8.66602 8.00098 9.99902h3l4 -2l1 -1c1.33301 -1.33301 2 -2.33301 2 -3c0.666992 -0.666992 1 -1.33398 1 -2.00098s0.333008 -1.33398 1 -2.00098v-4v0z" />
    <glyph glyph-name="braceright" unicode="}" horiz-adv-x="255" 
d="M24 650c-6 3.33301 -8.49805 7.66797 -7.49805 13.001s5.16699 7.33301 12.5 6l54 -9c16.667 -3.33301 29.667 -12.5 39 -27.5s16 -33 20 -54s6 -44 6 -69s-0.5 -49.167 -1.5 -72.5s-2.16699 -44.666 -3.5 -63.999s-1.33301 -34 0 -44c2 -12.667 6.66699 -22.5 14 -29.5
s16 -13 26 -18s20.167 -9.83301 30.5 -14.5s19.166 -10.667 26.499 -18c4 -4 5 -8 3 -12c-4 -7.33301 -9.16699 -11.833 -15.5 -13.5s-12.5 -5.16699 -18.5 -10.5c-6.66699 -6 -12.334 -13 -17.001 -21s-8.66699 -16 -12 -24c-3.33301 -8.66699 -6.33301 -17.167 -9 -25.5
s-4.66699 -17.166 -6 -26.499c-1.33301 -8.66699 -1.83301 -20.334 -1.5 -35.001s-0.5 -29.167 -2.5 -43.5s-6 -27.333 -12 -39s-16 -18.834 -30 -21.501c-11.333 -1.33301 -20.833 -2.5 -28.5 -3.5s-16.167 2.16699 -25.5 9.5
c-3.33301 5.33301 -3.16602 9.83301 0.500977 13.5s8.16699 4.16699 13.5 1.5c5.33301 -4 11 -6 17 -6s11.667 1.5 17 4.5s10.166 6.83301 14.499 11.5s7.5 9.66699 9.5 15c4.66699 12 7.5 24.167 8.5 36.5s1.83301 24.833 2.5 37.5s1.83398 25.667 3.50098 39
s5.5 27 11.5 41c7.33301 17.333 16.666 31 27.999 41s20.333 17.667 27 23c-7.33301 4.66699 -15.333 8.83398 -24 12.501l-26 11.5c-8.66699 4 -16.5 8.83301 -23.5 14.5s-11.833 13.167 -14.5 22.5c-4.66699 14 -7 31.167 -7 51.5s0.666992 42.166 2 65.499
s2.5 46.833 3.5 70.5s0.166992 45.667 -2.5 66s-7.66699 38.166 -15 53.499s-19 26 -35 32c-8 3.33301 -16.5 5.33301 -25.5 6s-17.833 1.66699 -26.5 3z" />
    <glyph glyph-name="asciitilde" unicode="~" horiz-adv-x="286" 
d="M30 378c-5.33301 -2 -9.3291 -0.666992 -11.9961 4s-2 9 2 13c3.33301 2 7.33301 7.33301 12 16l14.5 27.5c5 9.66699 10.5 19 16.5 28s12.167 15 18.5 18s12.833 2 19.5 -3s13.667 -16.167 21 -33.5c5.33301 -10.667 11.166 -21 17.499 -31s12.666 -18.667 18.999 -26
s12.5 -12.833 18.5 -16.5s11.333 -4.83398 16 -3.50098c15.333 6 27.333 16.667 36 32l24 43c4.66699 4.66699 9.33398 5.83398 14.001 3.50098s6 -6.5 4 -12.5l-10.5 -20c-3.66699 -6.66699 -7.83398 -13.334 -12.501 -20.001c-14.667 -21.333 -28 -35.5 -40 -42.5
s-22.833 -9 -32.5 -6s-18.334 9.5 -26.001 19.5s-15 20.833 -22 32.5l-20 33.5c-6.33301 10.667 -12.5 18.334 -18.5 23.001c-6.66699 0 -12.334 -3.5 -17.001 -10.5s-9.16699 -15 -13.5 -24l-13 -26.5c-4.33301 -8.66699 -9.5 -14.667 -15.5 -18z" />
    <glyph glyph-name="cent" unicode="&#xa2;" horiz-adv-x="260" 
d="M114 619c1.33301 7.33301 4.66602 11.0068 9.99902 11.0068s8.66602 -3.66699 9.99902 -11v-62.5c0 -20.333 0.333008 -40.833 1 -61.5l23 16l24 16c6.66699 3.33301 11.334 2.5 14.001 -2.5s1.33398 -9.83301 -3.99902 -14.5l-28.5 -19.5l-28.5 -19.5l4 -250h9
c10.667 0 19.5 0.666992 26.5 2s13.667 3.16602 20 5.49902s12.833 5 19.5 8s15 6.5 25 10.5c6 1.33301 10 -0.5 12 -5.5s0.333008 -9.16699 -5 -12.5c-14 -6 -24.167 -10.5 -30.5 -13.5s-11.833 -5.33301 -16.5 -7s-10.334 -2.83398 -17.001 -3.50098s-17.667 -2 -33 -4
c-2 -0.666992 -5 -1 -9 -1c0.666992 -28 1 -48.833 1 -62.5v-36.5c0 -10.667 0.166992 -22.834 0.5 -36.501s0.5 -34.5 0.5 -62.5c-2 -6 -5.5 -8.83301 -10.5 -8.5s-8.16699 3.16602 -9.5 8.49902v46c0 12 -0.166992 22.167 -0.5 30.5s-0.5 16 -0.5 23v23
c0 8.33301 -0.166992 18.5 -0.5 30.5s-0.5 27.333 -0.5 46c-17.333 2 -33.166 7.33301 -47.499 16s-26.5 19.667 -36.5 33s-16.833 28.166 -20.5 44.499s-3.5 33.166 0.5 50.499c7.33301 30 20 55.667 38 77s38.333 40.666 61 57.999c-0.666992 23.333 -1 46.5 -1 69.5v69.5
zM36 341.007c-4 -15.333 -4.50098 -29.666 -1.50098 -42.999s8.5 -25 16.5 -35s17.833 -18.333 29.5 -25s24.5 -11.334 38.5 -14.001l-4 232c-18.667 -15.333 -35.167 -32 -49.5 -50s-24.166 -39.667 -29.499 -65z" />
    <glyph glyph-name="multiply" unicode="&#xd7;" horiz-adv-x="223" 
d="M23 505c-5.33301 4.66699 -6.33301 9.50195 -3 14.502s8 5.83301 14 2.5c16.667 -13.333 31.834 -27.333 45.501 -42s26.5 -30 38.5 -46l44 103c4.66699 4.66699 9.33398 5.83398 14.001 3.50098s6 -6.5 4 -12.5c-8.66699 -18.667 -16.834 -37.334 -24.501 -56.001
l-23.5 -56c14 -19.333 27.333 -39.5 40 -60.5l39 -63.5c2 -5.33301 1.16699 -9.5 -2.5 -12.5s-8.16699 -2.83301 -13.5 0.5l-35.5 58.5c-11.667 19.667 -23.834 38.5 -36.501 56.5l-28 -62c-9.33301 -20.667 -19.333 -41 -30 -61c-4 -6 -8.5 -7.5 -13.5 -4.5
s-6.5 7.5 -4.5 13.5c11.333 21.333 22.333 43.166 33 65.499s20.667 44.833 30 67.5c-12.667 16.667 -26 32.667 -40 48s-29.667 29.666 -47 42.999z" />
    <glyph glyph-name="divide" unicode="&#xf7;" horiz-adv-x="300" 
d="M272 413c-40.667 -4.66699 -81.167 -8.16797 -121.5 -10.501s-80.833 -3.5 -121.5 -3.5c-6 0.666992 -9.16699 3.83398 -9.5 9.50098s3.16699 9.16699 10.5 10.5c40.667 0 81 1.16699 121 3.5s80 5.83301 120 10.5c6 -1.33301 9.16699 -4.5 9.5 -9.5
s-2.5 -8.5 -8.5 -10.5zM152 529.999c5.33301 -2 7.33203 -5.99902 5.99902 -11.999s-5 -8.33301 -11 -7c-3.33301 0.666992 -5.66602 2.16699 -6.99902 4.5s-1.66602 4.66602 -0.999023 6.99902s2.16699 4.33301 4.5 6s5.16602 2.16699 8.49902 1.5zM161.999 341
c5.33301 -2 7.33203 -5.99902 5.99902 -11.999s-5 -8.33301 -11 -7c-3.33301 0.666992 -5.66602 2.16699 -6.99902 4.5s-1.66602 4.66602 -0.999023 6.99902s2.16699 4.33301 4.5 6s5.16602 2.16699 8.49902 1.5z" />
    <glyph glyph-name="quoteleft" unicode="&#x2018;" horiz-adv-x="100" 
d="M15 591c1.33301 7.33301 4.66797 10.999 10.001 10.999s8.66602 -3.66699 9.99902 -11c0 -24 5.33301 -48.333 16 -73l30 -72c2.66699 -6 1.5 -10.667 -3.5 -14s-9.5 -1.66602 -13.5 5.00098l-32 76c-11.333 26 -17 52 -17 78z" />
    <glyph glyph-name="quoteright" unicode="&#x2019;" horiz-adv-x="110" 
d="M86 591c0 -26 -5.66504 -51.999 -16.998 -77.999l-32 -76c-4 -6.66699 -8.5 -8.33398 -13.5 -5.00098s-6.16699 8 -3.5 14l30 72c10.667 24.667 16 49 16 73c1.33301 7.33301 4.66602 11 9.99902 11s8.66602 -3.66699 9.99902 -11z" />
    <glyph glyph-name="quotedblleft" unicode="&#x201c;" horiz-adv-x="168" 
d="M96 587c1.33301 7.33301 4.66797 11.001 10.001 11.001s8.66602 -3.66699 9.99902 -11l30 -150c-2 -6 -5.5 -8.83301 -10.5 -8.5s-8.16699 3.16602 -9.5 8.49902zM15.002 591.001c1.33301 7.33301 4.66797 10.999 10.001 10.999s8.66602 -3.66699 9.99902 -11
c0 -24 5.33301 -48.333 16 -73l30 -72c2.66699 -6 1.5 -10.667 -3.5 -14s-9.5 -1.66602 -13.5 5.00098l-32 76c-11.333 26 -17 52 -17 78z" />
    <glyph glyph-name="quotedblright" unicode="&#x201d;" horiz-adv-x="162" 
d="M65 587l-29.998 -150.001c-1.33301 -5.33301 -4.5 -8.16602 -9.5 -8.49902s-8.5 2.5 -10.5 8.5l30 150c1.33301 7.33301 4.66602 11 9.99902 11s8.66602 -3.66699 9.99902 -11zM146.002 590.999c0 -26 -5.66504 -51.999 -16.998 -77.999l-32 -76
c-4 -6.66699 -8.5 -8.33398 -13.5 -5.00098s-6.16699 8 -3.5 14l30 72c10.667 24.667 16 49 16 73c1.33301 7.33301 4.66602 11 9.99902 11s8.66602 -3.66699 9.99902 -11z" />
    <glyph glyph-name="perthousand" unicode="&#x2030;" horiz-adv-x="587" 
d="M296 274c3.33301 4.66699 9 8.99902 17 12.999s16.5 7.16699 25.5 9.5s17.833 3 26.5 2s15.334 -4.16699 20.001 -9.5c10.667 -12 17.167 -26.667 19.5 -44s1 -34.166 -4 -50.499s-12.833 -30.833 -23.5 -43.5s-23.334 -20.334 -38.001 -23.001
c-26 -4 -44.833 -1.33301 -56.5 8s-18.334 21.833 -20.001 37.5s0.833008 32.834 7.5 51.501s15.334 35 26.001 49zM329 657.999c4.66699 4.66699 9.33203 5.83008 13.999 3.49707s6 -6.5 4 -12.5l-73.5 -176.5c-25 -58.333 -49 -117.166 -72 -176.499
s-44.333 -119.166 -64 -179.499s-36.834 -121.833 -51.501 -184.5c-1.33301 -3.33301 -3.16602 -5.66602 -5.49902 -6.99902s-4.66602 -1.83301 -6.99902 -1.5s-4.33301 1.5 -6 3.5s-2.16699 4.66699 -1.5 8c14.667 62.667 32 124.5 52 185.5s41.5 121.333 64.5 181
l72 178.5zM372.998 271.995c-10.667 7.33301 -21 9.50293 -31 6.50293s-19.167 -8.5 -27.5 -16.5s-15.166 -17.667 -20.499 -29s-9 -22 -11 -32c-1.33301 -8 -1.33301 -16 0 -24s4 -15 8 -21s9.66699 -10 17 -12s16 -1 26 3c8 3.33301 16.667 10.666 26 21.999
s16.833 23.666 22.5 36.999s8.16699 26.166 7.5 38.499s-6.33398 21.5 -17.001 27.5zM127.998 573.998c2 -5.33301 0.830078 -9.83105 -3.50293 -13.498s-8.5 -3.16699 -12.5 1.5c-14 3.33301 -26.667 -0.666992 -38 -12s-19.833 -25.666 -25.5 -42.999
s-7.66699 -35.166 -6 -53.499s8.83398 -32.5 21.501 -42.5c10 -8 20.333 -11.5 31 -10.5s20.5 4.83301 29.5 11.5s16.5 15.167 22.5 25.5s9 20.833 9 31.5s-3.66699 20.667 -11 30s-19.666 16 -36.999 20c-6 3.33301 -8.5 7.66602 -7.5 12.999s5.16699 7.33301 12.5 6
c21.333 -4.66699 36.666 -13 45.999 -25s14.5 -25 15.5 -39s-1.83301 -28 -8.5 -42s-15.667 -25.5 -27 -34.5s-24.5 -14.333 -39.5 -16s-30.5 2.5 -46.5 12.5c-14 8.66699 -22.833 21.167 -26.5 37.5s-4.16699 33.166 -1.5 50.499s7.83398 34.166 15.501 50.499
s15.834 29.166 24.501 38.499c2 2 6 4.33301 12 7s12.5 4.5 19.5 5.5s13.5 0.833008 19.5 -0.5s10 -4.33301 12 -9zM455.995 274c3.33301 4.66699 9 8.99902 17 12.999s16.5 7.16699 25.5 9.5s17.833 3 26.5 2s15.334 -4.16699 20.001 -9.5
c10.667 -12 17.167 -26.667 19.5 -44s1 -34.166 -4 -50.499s-12.833 -30.833 -23.5 -43.5s-23.334 -20.334 -38.001 -23.001c-26 -4 -44.833 -1.33301 -56.5 8s-18.334 21.833 -20.001 37.5s0.833008 32.834 7.5 51.501s15.334 35 26.001 49zM532.995 271.999
c-10.667 7.33301 -21 9.50293 -31 6.50293s-19.167 -8.5 -27.5 -16.5s-15.166 -17.667 -20.499 -29s-9 -22 -11 -32c-1.33301 -8 -1.33301 -16 0 -24s4 -15 8 -21s9.66699 -10 17 -12s16 -1 26 3c8 3.33301 16.667 10.666 26 21.999s16.833 23.666 22.5 36.999
s8.16699 26.166 7.5 38.499s-6.33398 21.5 -17.001 27.5z" />
    <glyph glyph-name="fraction" unicode="&#x2044;" horiz-adv-x="295" 
d="M259 658c4.66699 4.66699 9.33203 5.83008 13.999 3.49707s6 -6.5 4 -12.5l-73.5 -176.5c-25 -58.333 -49 -117.166 -72 -176.499s-44.333 -119.166 -64 -179.499s-36.834 -121.833 -51.501 -184.5c-1.33301 -3.33301 -3.16602 -5.66602 -5.49902 -6.99902
s-4.66602 -1.83301 -6.99902 -1.5s-4.33301 1.5 -6 3.5s-2.16699 4.66699 -1.5 8c14.667 62.667 32 124.5 52 185.5s41.5 121.333 64.5 181l72 178.5z" />
    <glyph glyph-name="minus" unicode="&#x2212;" horiz-adv-x="244" 
d="M26 403c-6.66699 0 -10.332 3 -10.999 9s2.66602 9.66699 9.99902 11c12.667 0 27.5 0.333008 44.5 1s34.5 1.5 52.5 2.5s35.333 1.83301 52 2.5s31.667 1 45 1c6 -1.33301 9.16699 -4.5 9.5 -9.5s-2.5 -8.5 -8.5 -10.5c-12.667 0 -27.5 -0.333008 -44.5 -1
s-34.333 -1.5 -52 -2.5s-35.167 -1.83301 -52.5 -2.5s-32.333 -1 -45 -1z" />
    </font>
</defs>
</svg>
